<svg width="2528" height="3659" viewBox="0 0 2528 3659" fill="none" xmlns="http://www.w3.org/2000/svg">
<g>
<rect x="1493" y="1908.25" width="51" height="522.505" transform="rotate(120 1493 1908.25)" fill="#3B3B3B"/>
<rect x="2262.26" y="1450.96" width="51" height="657.255" transform="rotate(136.78 2262.26 1450.96)" fill="#3B3B3B"/>
<rect width="51" height="1081" transform="matrix(-4.37114e-08 1 1 4.37114e-08 1036 1542)" fill="#3B3B3B"/>
<rect width="51" height="442.859" transform="matrix(0.707107 0.707107 0.707107 -0.707107 258 2779.15)" fill="#3B3B3B"/>
<rect width="51" height="442.859" transform="matrix(-4.37114e-08 1 1 4.37114e-08 428 2902)" fill="#3B3B3B"/>
<rect width="51" height="442.859" transform="matrix(-0.707107 0.707107 0.707107 0.707107 1173.06 3003)" fill="#3B3B3B"/>
<rect width="51" height="442.859" transform="matrix(0.5 0.866025 0.866025 -0.5 1661 3397.43)" fill="#3B3B3B"/>
<rect width="51" height="723.814" transform="matrix(0.396413 0.918072 0.918072 -0.396413 808 2306.93)" fill="#3B3B3B"/>
<path d="M1705.06 717.57L1669 681.507L2357.5 6.99919L2383 43.4999L1705.06 717.57Z" fill="#3B3B3B"/>
<circle cx="1606.5" cy="2031.5" r="216.5" fill="#3B3B3B"/>
<path d="M1473.19 2024L1464.73 2001.47H1464.59C1464.66 2002.21 1464.72 2003.22 1464.77 2004.49C1464.82 2005.74 1464.84 2007.05 1464.84 2008.42V2024H1461.85V1998.3H1466.64L1474.56 2019.36H1474.71L1482.77 1998.3H1487.52V2024H1484.32V2008.2C1484.32 2006.95 1484.34 2005.72 1484.39 2004.49C1484.46 2003.27 1484.52 2002.27 1484.57 2001.5H1484.43L1475.86 2024H1473.19ZM1510.86 2014.32C1510.86 2017.51 1510.04 2019.98 1508.41 2021.74C1506.8 2023.49 1504.62 2024.36 1501.86 2024.36C1500.15 2024.36 1498.63 2023.98 1497.29 2023.21C1495.97 2022.42 1494.92 2021.28 1494.15 2019.79C1493.39 2018.28 1493 2016.46 1493 2014.32C1493 2011.13 1493.81 2008.67 1495.41 2006.94C1497.02 2005.21 1499.21 2004.35 1501.97 2004.35C1503.72 2004.35 1505.25 2004.74 1506.57 2005.54C1507.92 2006.3 1508.96 2007.43 1509.71 2008.92C1510.47 2010.38 1510.86 2012.18 1510.86 2014.32ZM1496.28 2014.32C1496.28 2016.6 1496.72 2018.41 1497.61 2019.76C1498.52 2021.08 1499.96 2021.74 1501.93 2021.74C1503.87 2021.74 1505.3 2021.08 1506.21 2019.76C1507.13 2018.41 1507.58 2016.6 1507.58 2014.32C1507.58 2012.04 1507.13 2010.25 1506.21 2008.96C1505.3 2007.66 1503.86 2007.01 1501.89 2007.01C1499.93 2007.01 1498.5 2007.66 1497.61 2008.96C1496.72 2010.25 1496.28 2012.04 1496.28 2014.32ZM1530.21 2004.71V2021.34H1533.01V2030.7H1529.95V2024H1516.53V2030.7H1513.5V2021.34H1515.05C1516.71 2019.06 1517.94 2016.47 1518.76 2013.56C1519.6 2010.64 1520.03 2007.68 1520.05 2004.71H1530.21ZM1522.86 2007.19C1522.77 2008.82 1522.51 2010.52 1522.11 2012.27C1521.7 2014 1521.17 2015.65 1520.52 2017.24C1519.9 2018.82 1519.17 2020.19 1518.33 2021.34H1527.15V2007.19H1522.86ZM1533.77 2004.71H1537.16L1541.33 2015.69C1541.69 2016.65 1542.02 2017.57 1542.3 2018.46C1542.59 2019.32 1542.81 2020.15 1542.95 2020.94H1543.1C1543.24 2020.34 1543.47 2019.56 1543.78 2018.6C1544.09 2017.62 1544.42 2016.64 1544.75 2015.65L1548.68 2004.71H1552.1L1543.78 2026.67C1543.11 2028.49 1542.23 2029.94 1541.15 2031.02C1540.1 2032.1 1538.63 2032.64 1536.76 2032.64C1536.18 2032.64 1535.68 2032.61 1535.25 2032.54C1534.82 2032.49 1534.44 2032.43 1534.13 2032.36V2029.84C1534.4 2029.88 1534.71 2029.93 1535.07 2029.98C1535.45 2030.03 1535.85 2030.05 1536.26 2030.05C1537.36 2030.05 1538.25 2029.74 1538.92 2029.12C1539.62 2028.49 1540.16 2027.66 1540.54 2026.63L1541.55 2024.08L1533.77 2004.71ZM1569.13 2024H1565.93V2007.34H1560.24C1559.93 2011.39 1559.5 2014.67 1558.94 2017.16C1558.39 2019.64 1557.66 2021.44 1556.75 2022.56C1555.84 2023.69 1554.68 2024.26 1553.29 2024.26C1552.98 2024.26 1552.67 2024.23 1552.36 2024.18C1552.07 2024.16 1551.83 2024.1 1551.64 2024V2021.63C1551.78 2021.68 1551.94 2021.71 1552.1 2021.74C1552.27 2021.76 1552.44 2021.77 1552.61 2021.77C1553.9 2021.77 1554.94 2020.39 1555.7 2017.63C1556.5 2014.87 1557.1 2010.56 1557.5 2004.71H1569.13V2024ZM1578.25 2016.48C1578.25 2016.77 1578.23 2017.2 1578.21 2017.78C1578.19 2018.35 1578.15 2018.93 1578.1 2019.5C1578.08 2020.08 1578.05 2020.54 1578.03 2020.87L1588.36 2004.71H1592.25V2024H1589.3V2012.63C1589.3 2012.24 1589.3 2011.74 1589.3 2011.12C1589.32 2010.49 1589.35 2009.88 1589.37 2009.28C1589.39 2008.66 1589.42 2008.19 1589.44 2007.88L1579.18 2024H1575.26V2004.71H1578.25V2016.48ZM1597.46 2029.12L1600.8 2019.54L1603.79 2020.58L1599.48 2029.91L1597.46 2029.12ZM1635.93 2004.71V2024H1632.76V2007.41H1622.79V2024H1619.62V2004.71H1635.93ZM1649.4 2004.38C1651.75 2004.38 1653.49 2004.9 1654.62 2005.93C1655.75 2006.96 1656.31 2008.61 1656.31 2010.86V2024H1654.01L1653.39 2021.27H1653.25C1652.41 2022.32 1651.52 2023.1 1650.59 2023.61C1649.67 2024.11 1648.4 2024.36 1646.77 2024.36C1645.02 2024.36 1643.57 2023.91 1642.41 2023C1641.26 2022.06 1640.69 2020.61 1640.69 2018.64C1640.69 2016.72 1641.44 2015.24 1642.95 2014.21C1644.47 2013.16 1646.79 2012.58 1649.94 2012.48L1653.21 2012.38V2011.22C1653.21 2009.62 1652.87 2008.5 1652.17 2007.88C1651.47 2007.25 1650.49 2006.94 1649.22 2006.94C1648.21 2006.94 1647.25 2007.1 1646.34 2007.41C1645.43 2007.7 1644.57 2008.03 1643.78 2008.42L1642.81 2006.04C1643.65 2005.58 1644.65 2005.2 1645.8 2004.89C1646.95 2004.55 1648.15 2004.38 1649.4 2004.38ZM1650.33 2014.68C1647.93 2014.78 1646.27 2015.16 1645.33 2015.83C1644.42 2016.5 1643.96 2017.45 1643.96 2018.68C1643.96 2019.76 1644.29 2020.55 1644.93 2021.05C1645.61 2021.56 1646.46 2021.81 1647.49 2021.81C1649.12 2021.81 1650.48 2021.36 1651.56 2020.48C1652.64 2019.56 1653.18 2018.17 1653.18 2016.3V2014.57L1650.33 2014.68ZM1673.68 2004.71H1677.14L1668.89 2014L1677.82 2024H1674.15L1665.44 2014.21V2024H1662.27V2004.71H1665.44V2014.07L1673.68 2004.71ZM1688.07 2004.35C1689.73 2004.35 1691.14 2004.71 1692.32 2005.43C1693.52 2006.15 1694.43 2007.17 1695.06 2008.49C1695.7 2009.78 1696.03 2011.31 1696.03 2013.06V2014.97H1682.82C1682.86 2017.15 1683.42 2018.82 1684.47 2019.97C1685.55 2021.1 1687.05 2021.66 1688.97 2021.66C1690.2 2021.66 1691.28 2021.56 1692.21 2021.34C1693.17 2021.1 1694.16 2020.76 1695.16 2020.33V2023.1C1694.18 2023.54 1693.21 2023.85 1692.25 2024.04C1691.29 2024.26 1690.15 2024.36 1688.83 2024.36C1687 2024.36 1685.38 2023.99 1683.97 2023.25C1682.58 2022.5 1681.48 2021.4 1680.69 2019.94C1679.92 2018.45 1679.54 2016.64 1679.54 2014.5C1679.54 2012.39 1679.89 2010.58 1680.58 2009.06C1681.3 2007.55 1682.3 2006.39 1683.57 2005.57C1684.87 2004.76 1686.37 2004.35 1688.07 2004.35ZM1688.04 2006.94C1686.52 2006.94 1685.32 2007.43 1684.44 2008.42C1683.57 2009.38 1683.06 2010.72 1682.89 2012.45H1692.72C1692.69 2010.82 1692.31 2009.5 1691.56 2008.49C1690.82 2007.46 1689.64 2006.94 1688.04 2006.94ZM1714.26 2007.37H1707.96V2024H1704.83V2007.37H1698.6V2004.71H1714.26V2007.37ZM1718.06 2024V2004.71H1721.23V2012.63H1726.23C1728.73 2012.63 1730.58 2013.08 1731.78 2014C1732.98 2014.91 1733.58 2016.28 1733.58 2018.1C1733.58 2019.9 1732.99 2021.34 1731.81 2022.42C1730.64 2023.48 1728.73 2024 1726.09 2024H1718.06ZM1736.78 2024V2004.71H1739.95V2024H1736.78ZM1725.8 2021.45C1727.17 2021.45 1728.29 2021.22 1729.15 2020.76C1730.01 2020.28 1730.45 2019.46 1730.45 2018.28C1730.45 2017.1 1730.05 2016.31 1729.26 2015.9C1728.47 2015.47 1727.33 2015.26 1725.84 2015.26H1721.23V2021.45H1725.8ZM1745.15 2029.12L1748.49 2019.54L1751.48 2020.58L1747.17 2029.91L1745.15 2029.12ZM1458.42 2059.48C1458.42 2059.77 1458.4 2060.2 1458.38 2060.78C1458.36 2061.35 1458.32 2061.93 1458.27 2062.5C1458.25 2063.08 1458.22 2063.54 1458.2 2063.87L1468.53 2047.71H1472.42V2067H1469.47V2055.63C1469.47 2055.24 1469.47 2054.74 1469.47 2054.12C1469.49 2053.49 1469.52 2052.88 1469.54 2052.28C1469.56 2051.66 1469.59 2051.19 1469.61 2050.88L1459.35 2067H1455.43V2047.71H1458.42V2059.48ZM1499.26 2047.71V2067H1496.42V2054.69C1496.42 2054.19 1496.43 2053.66 1496.45 2053.11C1496.5 2052.56 1496.55 2052.02 1496.6 2051.49H1496.49L1490.19 2067H1487.52L1481.4 2051.49H1481.3C1481.37 2052.57 1481.4 2053.67 1481.4 2054.8V2067H1478.56V2047.71H1482.77L1488.86 2063.22L1495.05 2047.71H1499.26ZM1521.73 2047.71V2067H1518.56V2050.41H1508.59V2067H1505.42V2047.71H1521.73ZM1544.66 2057.32C1544.66 2060.51 1543.84 2062.98 1542.21 2064.74C1540.6 2066.49 1538.42 2067.36 1535.66 2067.36C1533.96 2067.36 1532.43 2066.98 1531.09 2066.21C1529.77 2065.42 1528.72 2064.28 1527.96 2062.79C1527.19 2061.28 1526.8 2059.46 1526.8 2057.32C1526.8 2054.13 1527.61 2051.67 1529.22 2049.94C1530.82 2048.21 1533.01 2047.35 1535.77 2047.35C1537.52 2047.35 1539.06 2047.74 1540.38 2048.54C1541.72 2049.3 1542.76 2050.43 1543.51 2051.92C1544.28 2053.38 1544.66 2055.18 1544.66 2057.32ZM1530.08 2057.32C1530.08 2059.6 1530.52 2061.41 1531.41 2062.76C1532.32 2064.08 1533.76 2064.74 1535.73 2064.74C1537.68 2064.74 1539.1 2064.08 1540.02 2062.76C1540.93 2061.41 1541.38 2059.6 1541.38 2057.32C1541.38 2055.04 1540.93 2053.25 1540.02 2051.96C1539.1 2050.66 1537.66 2050.01 1535.7 2050.01C1533.73 2050.01 1532.3 2050.66 1531.41 2051.96C1530.52 2053.25 1530.08 2055.04 1530.08 2057.32ZM1558.86 2047.35C1561.24 2047.35 1563.15 2048.18 1564.59 2049.83C1566.05 2051.49 1566.78 2053.98 1566.78 2057.32C1566.78 2060.61 1566.05 2063.1 1564.59 2064.81C1563.15 2066.51 1561.23 2067.36 1558.83 2067.36C1557.34 2067.36 1556.1 2067.09 1555.12 2066.54C1554.16 2065.96 1553.4 2065.3 1552.85 2064.56H1552.63C1552.68 2064.96 1552.73 2065.48 1552.78 2066.1C1552.83 2066.73 1552.85 2067.27 1552.85 2067.72V2075.64H1549.68V2047.71H1552.27L1552.71 2050.34H1552.85C1553.43 2049.5 1554.18 2048.79 1555.12 2048.21C1556.05 2047.64 1557.3 2047.35 1558.86 2047.35ZM1558.29 2050.01C1556.32 2050.01 1554.93 2050.56 1554.11 2051.67C1553.32 2052.77 1552.9 2054.45 1552.85 2056.71V2057.32C1552.85 2059.7 1553.23 2061.53 1554 2062.83C1554.79 2064.1 1556.25 2064.74 1558.36 2064.74C1559.53 2064.74 1560.49 2064.41 1561.24 2063.76C1562.01 2063.12 1562.57 2062.24 1562.93 2061.14C1563.31 2060.01 1563.51 2058.72 1563.51 2057.28C1563.51 2055.08 1563.07 2053.31 1562.21 2051.99C1561.37 2050.67 1560.06 2050.01 1558.29 2050.01ZM1584.8 2050.37H1578.5V2067H1575.37V2050.37H1569.14V2047.71H1584.8V2050.37ZM1588.6 2067V2047.71H1591.77V2055.63H1596.77C1599.27 2055.63 1601.12 2056.08 1602.32 2057C1603.52 2057.91 1604.12 2059.28 1604.12 2061.1C1604.12 2062.9 1603.53 2064.34 1602.35 2065.42C1601.18 2066.48 1599.27 2067 1596.63 2067H1588.6ZM1607.32 2067V2047.71H1610.49V2067H1607.32ZM1596.34 2064.45C1597.71 2064.45 1598.82 2064.22 1599.69 2063.76C1600.55 2063.28 1600.98 2062.46 1600.98 2061.28C1600.98 2060.1 1600.59 2059.31 1599.8 2058.9C1599 2058.47 1597.86 2058.26 1596.38 2058.26H1591.77V2064.45H1596.34ZM1642.75 2052.57C1642.75 2053.77 1642.39 2054.7 1641.67 2055.38C1640.95 2056.05 1640.03 2056.5 1638.9 2056.74V2056.89C1640.1 2057.06 1641.14 2057.49 1642.03 2058.18C1642.92 2058.86 1643.36 2059.91 1643.36 2061.35C1643.36 2062.98 1642.75 2064.34 1641.53 2065.42C1640.33 2066.48 1638.34 2067 1635.55 2067H1627.24V2047.71H1635.52C1636.88 2047.71 1638.11 2047.86 1639.19 2048.18C1640.29 2048.46 1641.16 2048.97 1641.78 2049.69C1642.43 2050.38 1642.75 2051.34 1642.75 2052.57ZM1639.55 2052.96C1639.55 2052.05 1639.21 2051.39 1638.54 2050.98C1637.89 2050.55 1636.82 2050.34 1635.34 2050.34H1630.4V2055.63H1634.76C1637.95 2055.63 1639.55 2054.74 1639.55 2052.96ZM1640.09 2061.35C1640.09 2060.25 1639.67 2059.46 1638.83 2058.98C1637.99 2058.5 1636.75 2058.26 1635.12 2058.26H1630.4V2064.45H1635.19C1636.78 2064.45 1637.99 2064.22 1638.83 2063.76C1639.67 2063.28 1640.09 2062.48 1640.09 2061.35ZM1661.62 2055.46V2067H1658.63V2041.27H1664.03C1665.91 2041.27 1667.3 2041.37 1668.19 2041.57C1669.08 2041.77 1669.86 2042.1 1670.51 2042.55C1671.33 2043.14 1671.97 2043.94 1672.43 2044.96C1672.9 2045.98 1673.13 2047.11 1673.13 2048.35C1673.13 2049.6 1672.9 2050.73 1672.43 2051.75C1671.97 2052.77 1671.33 2053.57 1670.51 2054.15C1669.86 2054.62 1669.08 2054.96 1668.19 2055.16C1667.31 2055.36 1665.92 2055.46 1664.03 2055.46H1663.16H1661.62ZM1661.62 2052.68H1663.16C1665.79 2052.68 1667.55 2052.37 1668.46 2051.76C1669.37 2051.14 1669.83 2050.06 1669.83 2048.53C1669.83 2046.89 1669.36 2045.73 1668.42 2045.07C1667.49 2044.4 1665.74 2044.06 1663.16 2044.06H1661.62V2052.68ZM1675.98 2074.84L1680.34 2065.42L1674.03 2050.92H1677.21L1681.88 2062.47L1686.84 2050.92H1689.87L1679.07 2074.84H1675.98ZM1692.91 2053.19H1689.95V2050.92H1692.91V2044.43H1695.72V2050.92H1698.67V2053.19H1695.72V2067H1692.91V2053.19ZM1701.8 2067V2039.76H1704.49V2053.4C1705.18 2052.37 1706.01 2051.6 1706.99 2051.1C1707.96 2050.59 1709.08 2050.34 1710.36 2050.34C1712.26 2050.34 1713.74 2050.84 1714.81 2051.85C1715.88 2052.86 1716.41 2054.26 1716.41 2056.05V2067H1713.6V2057.53C1713.6 2055.9 1713.25 2054.69 1712.56 2053.91C1711.88 2053.11 1710.82 2052.71 1709.39 2052.71C1708.57 2052.71 1707.82 2052.87 1707.14 2053.17C1706.48 2053.46 1705.92 2053.88 1705.47 2054.44C1705.13 2054.86 1704.89 2055.34 1704.74 2055.88C1704.6 2056.42 1704.53 2057.35 1704.53 2058.69V2067H1701.8ZM1723.49 2059.01C1723.49 2060.71 1724.06 2062.15 1725.2 2063.33C1726.33 2064.5 1727.71 2065.09 1729.33 2065.09C1730.93 2065.09 1732.3 2064.5 1733.42 2063.33C1734.55 2062.15 1735.11 2060.71 1735.11 2059.01C1735.11 2057.31 1734.55 2055.87 1733.42 2054.7C1732.3 2053.52 1730.93 2052.92 1729.33 2052.92C1727.7 2052.92 1726.32 2053.52 1725.18 2054.7C1724.05 2055.87 1723.49 2057.31 1723.49 2059.01ZM1720.57 2059.01C1720.57 2057.82 1720.79 2056.71 1721.22 2055.67C1721.66 2054.61 1722.29 2053.67 1723.12 2052.85C1723.96 2052.03 1724.9 2051.41 1725.95 2050.99C1727.01 2050.56 1728.13 2050.34 1729.33 2050.34C1730.5 2050.34 1731.61 2050.56 1732.65 2050.99C1733.71 2051.42 1734.66 2052.06 1735.52 2052.89C1736.35 2053.7 1736.98 2054.63 1737.41 2055.68C1737.85 2056.73 1738.06 2057.83 1738.06 2059.01C1738.06 2060.18 1737.85 2061.29 1737.41 2062.33C1736.98 2063.36 1736.35 2064.28 1735.52 2065.09C1734.66 2065.93 1733.7 2066.58 1732.63 2067.02C1731.58 2067.47 1730.48 2067.69 1729.33 2067.69C1728.14 2067.69 1727.02 2067.47 1725.95 2067.02C1724.9 2066.59 1723.96 2065.96 1723.12 2065.14C1722.29 2064.3 1721.66 2063.36 1721.22 2062.33C1720.79 2061.3 1720.57 2060.19 1720.57 2059.01ZM1742.37 2067V2050.92H1745.06V2053.4C1745.75 2052.37 1746.58 2051.6 1747.56 2051.1C1748.53 2050.59 1749.65 2050.34 1750.93 2050.34C1752.83 2050.34 1754.31 2050.84 1755.38 2051.85C1756.45 2052.86 1756.98 2054.26 1756.98 2056.05V2067H1754.17V2057.53C1754.17 2055.9 1753.82 2054.69 1753.13 2053.91C1752.45 2053.11 1751.39 2052.71 1749.96 2052.71C1749.14 2052.71 1748.39 2052.87 1747.71 2053.17C1747.05 2053.46 1746.49 2053.88 1746.04 2054.44C1745.71 2054.86 1745.46 2055.34 1745.31 2055.88C1745.17 2056.42 1745.1 2057.35 1745.1 2058.69V2067H1742.37Z" fill="#5F5E5E"/>
<circle cx="1556.5" cy="828.504" r="318.5" fill="#3B3B3B"/>
<path d="M1482.71 817.004H1473.58V781.262H1483.76C1487.75 781.262 1490.55 781.457 1492.16 781.848C1493.77 782.238 1495.14 782.906 1496.26 783.85C1497.58 784.94 1498.58 786.307 1499.26 787.951C1499.96 789.579 1500.31 791.394 1500.31 793.396C1500.31 795.528 1499.97 797.408 1499.29 799.035C1498.6 800.646 1497.59 801.973 1496.26 803.015C1495.25 803.796 1494.06 804.357 1492.69 804.699C1491.33 805.041 1489.14 805.212 1486.13 805.212H1484.47H1482.71V817.004ZM1482.71 797.351H1484.56C1486.91 797.351 1488.54 797.033 1489.47 796.398C1490.4 795.747 1490.86 794.649 1490.86 793.103C1490.86 791.605 1490.41 790.539 1489.5 789.904C1488.58 789.27 1486.97 788.952 1484.66 788.952H1482.71V797.351ZM1503.31 827.893L1510.25 813.244L1500.31 792.346H1509.96L1513.4 801.257C1513.69 802.006 1513.93 802.705 1514.13 803.356C1514.33 803.991 1514.47 804.585 1514.57 805.139C1514.67 804.553 1514.81 803.951 1514.98 803.332C1515.18 802.697 1515.42 802.006 1515.72 801.257L1519.21 792.346H1528.51L1513.01 827.893H1503.31ZM1532.61 817.004V798.498H1528.92V792.346H1532.61V784.997H1541.18V792.346H1544.87V798.498H1541.18V817.004H1532.61ZM1548.94 817.004V779.162H1557.49V792.443C1557.49 793.322 1557.46 794.136 1557.42 794.885C1557.37 795.633 1557.29 796.309 1557.2 796.911C1558.29 795.072 1559.57 793.721 1561.05 792.858C1562.53 791.996 1564.3 791.564 1566.35 791.564C1567.95 791.564 1569.36 791.825 1570.6 792.346C1571.85 792.85 1572.87 793.583 1573.65 794.543C1574.3 795.373 1574.77 796.382 1575.04 797.57C1575.32 798.758 1575.46 800.533 1575.46 802.893V817.004H1566.74V803.796C1566.74 801.826 1566.42 800.394 1565.77 799.499C1565.13 798.604 1564.11 798.156 1562.69 798.156C1560.88 798.156 1559.56 798.824 1558.73 800.158C1557.9 801.493 1557.49 803.658 1557.49 806.652V817.004H1548.94ZM1599.12 804.748C1599.12 802.909 1598.65 801.46 1597.72 800.402C1596.8 799.344 1595.54 798.815 1593.96 798.815C1592.37 798.815 1591.11 799.344 1590.18 800.402C1589.27 801.46 1588.81 802.909 1588.81 804.748C1588.81 806.587 1589.27 808.036 1590.18 809.094C1591.09 810.135 1592.35 810.656 1593.96 810.656C1595.56 810.656 1596.81 810.135 1597.72 809.094C1598.65 808.036 1599.12 806.587 1599.12 804.748ZM1607.76 804.748C1607.76 806.522 1607.41 808.207 1606.71 809.802C1606.02 811.397 1605.02 812.829 1603.71 814.099C1602.37 815.368 1600.87 816.328 1599.21 816.979C1597.57 817.631 1595.82 817.956 1593.96 817.956C1592.08 817.956 1590.3 817.631 1588.64 816.979C1587 816.328 1585.52 815.368 1584.22 814.099C1582.92 812.862 1581.93 811.446 1581.24 809.851C1580.56 808.239 1580.22 806.538 1580.22 804.748C1580.22 802.941 1580.55 801.241 1581.22 799.646C1581.9 798.05 1582.9 796.618 1584.22 795.349C1585.51 794.095 1586.97 793.151 1588.62 792.517C1590.28 791.882 1592.06 791.564 1593.96 791.564C1595.87 791.564 1597.64 791.882 1599.29 792.517C1600.93 793.151 1602.4 794.095 1603.71 795.349C1605.04 796.634 1606.05 798.075 1606.73 799.67C1607.42 801.265 1607.76 802.958 1607.76 804.748ZM1612.76 817.004V792.346H1620.72V797.351C1621.88 795.349 1623.21 793.884 1624.73 792.956C1626.24 792.028 1628.05 791.564 1630.17 791.564C1631.76 791.564 1633.18 791.825 1634.42 792.346C1635.67 792.85 1636.69 793.583 1637.47 794.543C1638.12 795.373 1638.58 796.382 1638.86 797.57C1639.14 798.758 1639.28 800.533 1639.28 802.893V817.004H1630.56V803.796C1630.56 801.826 1630.24 800.394 1629.58 799.499C1628.95 798.604 1627.92 798.156 1626.51 798.156C1624.7 798.156 1623.38 798.824 1622.55 800.158C1621.72 801.493 1621.31 803.658 1621.31 806.652V817.004H1612.76ZM1402.94 849.704V877.004H1395.49V855.304H1385.59V877.004H1378.14V849.704H1402.94ZM1425.95 849.204C1429.02 849.204 1431.5 850.404 1433.4 852.804C1435.3 855.171 1436.25 858.671 1436.25 863.304C1436.25 867.937 1435.27 871.471 1433.3 873.904C1431.34 876.304 1428.82 877.504 1425.75 877.504C1423.79 877.504 1422.22 877.154 1421.05 876.454C1419.89 875.721 1418.94 874.904 1418.2 874.004H1417.8C1418.07 875.404 1418.2 876.737 1418.2 878.004V889.004H1410.75V849.704H1416.8L1417.85 853.254H1418.2C1418.94 852.154 1419.92 851.204 1421.15 850.404C1422.39 849.604 1423.99 849.204 1425.95 849.204ZM1423.55 855.154C1421.62 855.154 1420.25 855.754 1419.45 856.954C1418.69 858.154 1418.27 859.987 1418.2 862.454V863.254C1418.2 865.887 1418.59 867.921 1419.35 869.354C1420.15 870.754 1421.59 871.454 1423.65 871.454C1425.35 871.454 1426.6 870.754 1427.4 869.354C1428.24 867.921 1428.65 865.871 1428.65 863.204C1428.65 857.837 1426.95 855.154 1423.55 855.154ZM1467.2 863.304C1467.2 867.837 1466 871.337 1463.6 873.804C1461.23 876.271 1458 877.504 1453.9 877.504C1451.36 877.504 1449.1 876.954 1447.1 875.854C1445.13 874.754 1443.58 873.154 1442.45 871.054C1441.31 868.921 1440.75 866.337 1440.75 863.304C1440.75 858.771 1441.93 855.287 1444.3 852.854C1446.66 850.421 1449.91 849.204 1454.05 849.204C1456.61 849.204 1458.88 849.754 1460.85 850.854C1462.81 851.954 1464.36 853.554 1465.5 855.654C1466.63 857.721 1467.2 860.271 1467.2 863.304ZM1448.35 863.304C1448.35 866.004 1448.78 868.054 1449.65 869.454C1450.55 870.821 1452 871.504 1454 871.504C1455.96 871.504 1457.38 870.821 1458.25 869.454C1459.15 868.054 1459.6 866.004 1459.6 863.304C1459.6 860.604 1459.15 858.587 1458.25 857.254C1457.38 855.887 1455.95 855.204 1453.95 855.204C1451.98 855.204 1450.55 855.887 1449.65 857.254C1448.78 858.587 1448.35 860.604 1448.35 863.304ZM1497.9 849.704V871.554H1501.9V886.804H1495.2V877.004H1476.85V886.804H1470.15V871.554H1472.45C1473.65 869.721 1474.67 867.637 1475.5 865.304C1476.34 862.937 1477 860.421 1477.5 857.754C1478 855.087 1478.37 852.404 1478.6 849.704H1497.9ZM1484.85 855.304C1484.45 858.337 1483.9 861.221 1483.2 863.954C1482.5 866.654 1481.52 869.187 1480.25 871.554H1490.45V855.304H1484.85ZM1530.76 856.854C1530.76 858.321 1530.29 859.571 1529.36 860.604C1528.46 861.637 1527.11 862.304 1525.31 862.604V862.804C1527.21 863.037 1528.72 863.687 1529.86 864.754C1531.02 865.821 1531.61 867.187 1531.61 868.854C1531.61 870.421 1531.19 871.821 1530.36 873.054C1529.56 874.287 1528.27 875.254 1526.51 875.954C1524.74 876.654 1522.42 877.004 1519.56 877.004H1506.56V849.704H1519.56C1521.69 849.704 1523.59 849.937 1525.26 850.404C1526.96 850.837 1528.29 851.571 1529.26 852.604C1530.26 853.637 1530.76 855.054 1530.76 856.854ZM1523.21 857.454C1523.21 855.787 1521.89 854.954 1519.26 854.954H1514.01V860.354H1518.41C1519.97 860.354 1521.16 860.137 1521.96 859.704C1522.79 859.237 1523.21 858.487 1523.21 857.454ZM1523.91 868.454C1523.91 867.387 1523.49 866.621 1522.66 866.154C1521.82 865.654 1520.57 865.404 1518.91 865.404H1514.01V871.854H1519.06C1520.46 871.854 1521.61 871.604 1522.51 871.104C1523.44 870.571 1523.91 869.687 1523.91 868.454ZM1545.2 860.504C1545.2 861.071 1545.17 861.771 1545.1 862.604C1545.07 863.437 1545.02 864.287 1544.95 865.154C1544.92 866.021 1544.87 866.787 1544.8 867.454C1544.73 868.121 1544.68 868.587 1544.65 868.854L1557.25 849.704H1566.2V877.004H1559V866.104C1559 865.204 1559.03 864.221 1559.1 863.154C1559.17 862.054 1559.23 861.037 1559.3 860.104C1559.4 859.137 1559.47 858.404 1559.5 857.904L1546.95 877.004H1538V849.704H1545.2V860.504ZM1581.44 849.704V860.204H1591.84V849.704H1599.29V877.004H1591.84V865.754H1581.44V877.004H1573.99V849.704H1581.44ZM1603.19 849.704H1611.34L1616.49 865.054C1616.76 865.787 1616.96 866.554 1617.09 867.354C1617.23 868.121 1617.33 868.937 1617.39 869.804H1617.54C1617.64 868.937 1617.78 868.121 1617.94 867.354C1618.14 866.554 1618.36 865.787 1618.59 865.054L1623.64 849.704H1631.64L1620.09 880.504C1619.06 883.337 1617.54 885.454 1615.54 886.854C1613.58 888.287 1611.29 889.004 1608.69 889.004C1607.86 889.004 1607.13 888.954 1606.49 888.854C1605.89 888.787 1605.36 888.704 1604.89 888.604V882.704C1605.26 882.771 1605.69 882.837 1606.19 882.904C1606.73 882.971 1607.28 883.004 1607.84 883.004C1609.41 883.004 1610.64 882.521 1611.54 881.554C1612.48 880.621 1613.16 879.487 1613.59 878.154L1614.04 876.804L1603.19 849.704ZM1658.16 855.304H1649.21V877.004H1641.76V855.304H1632.81V849.704H1658.16V855.304ZM1663.2 877.004V849.704H1670.65V860.254H1674.25C1678.41 860.254 1681.5 860.921 1683.5 862.254C1685.5 863.587 1686.5 865.604 1686.5 868.304C1686.5 870.937 1685.56 873.054 1683.7 874.654C1681.83 876.221 1678.76 877.004 1674.5 877.004H1663.2ZM1690.45 877.004V849.704H1697.9V877.004H1690.45ZM1674.1 871.854C1675.56 871.854 1676.75 871.587 1677.65 871.054C1678.58 870.521 1679.05 869.637 1679.05 868.404C1679.05 866.404 1677.36 865.404 1674 865.404H1670.65V871.854H1674.1ZM1731.83 837.954C1731.66 839.687 1731.18 841.221 1730.38 842.554C1729.58 843.854 1728.33 844.871 1726.63 845.604C1724.93 846.337 1722.64 846.704 1719.78 846.704C1716.84 846.704 1714.54 846.354 1712.88 845.654C1711.24 844.921 1710.08 843.904 1709.38 842.604C1708.68 841.304 1708.26 839.754 1708.13 837.954H1714.78C1714.94 839.787 1715.41 841.004 1716.18 841.604C1716.94 842.204 1718.19 842.504 1719.93 842.504C1721.36 842.504 1722.53 842.187 1723.43 841.554C1724.36 840.887 1724.91 839.687 1725.08 837.954H1731.83ZM1712.88 860.504C1712.88 861.071 1712.84 861.771 1712.78 862.604C1712.74 863.437 1712.69 864.287 1712.63 865.154C1712.59 866.021 1712.54 866.787 1712.48 867.454C1712.41 868.121 1712.36 868.587 1712.33 868.854L1724.93 849.704H1733.88V877.004H1726.68V866.104C1726.68 865.204 1726.71 864.221 1726.78 863.154C1726.84 862.054 1726.91 861.037 1726.98 860.104C1727.08 859.137 1727.14 858.404 1727.18 857.904L1714.63 877.004H1705.68V849.704H1712.88V860.504Z" fill="#5F5E5E"/>
<circle cx="2311.5" cy="1557.5" r="216.5" fill="#3B3B3B"/>
<path d="M2211.33 1516.3H2214.35V1530.41C2214.35 1531.2 2214.34 1532.09 2214.31 1533.07C2214.29 1534.06 2214.25 1534.96 2214.21 1535.77C2214.18 1536.59 2214.15 1537.19 2214.1 1537.57H2214.24L2228.39 1516.3H2231.99V1542H2228.97V1528.03C2228.97 1527.15 2228.98 1526.2 2229 1525.19C2229.05 1524.18 2229.1 1523.26 2229.15 1522.42C2229.19 1521.58 2229.23 1520.98 2229.25 1520.62H2229.11L2214.93 1542H2211.33V1516.3ZM2251.81 1525.37H2245.51V1542H2242.38V1525.37H2236.15V1522.71H2251.81V1525.37ZM2262.71 1522.35C2264.37 1522.35 2265.79 1522.71 2266.96 1523.43C2268.16 1524.15 2269.07 1525.17 2269.7 1526.49C2270.35 1527.78 2270.67 1529.31 2270.67 1531.06V1532.97H2257.46C2257.51 1535.15 2258.06 1536.82 2259.11 1537.97C2260.19 1539.1 2261.69 1539.66 2263.61 1539.66C2264.84 1539.66 2265.92 1539.55 2266.85 1539.34C2267.81 1539.1 2268.8 1538.76 2269.81 1538.33V1541.1C2268.82 1541.53 2267.85 1541.85 2266.89 1542.04C2265.93 1542.25 2264.79 1542.36 2263.47 1542.36C2261.65 1542.36 2260.03 1541.99 2258.61 1541.25C2257.22 1540.5 2256.13 1539.4 2255.33 1537.93C2254.57 1536.45 2254.18 1534.63 2254.18 1532.5C2254.18 1530.39 2254.53 1528.57 2255.23 1527.06C2255.95 1525.55 2256.94 1524.39 2258.21 1523.57C2259.51 1522.75 2261.01 1522.35 2262.71 1522.35ZM2262.68 1524.94C2261.17 1524.94 2259.97 1525.43 2259.08 1526.41C2258.21 1527.37 2257.7 1528.72 2257.53 1530.45H2267.36C2267.33 1528.81 2266.95 1527.49 2266.21 1526.49C2265.46 1525.45 2264.29 1524.94 2262.68 1524.94ZM2284.76 1522.35C2287.14 1522.35 2289.05 1523.17 2290.49 1524.83C2291.95 1526.49 2292.68 1528.98 2292.68 1532.32C2292.68 1535.61 2291.95 1538.1 2290.49 1539.81C2289.05 1541.51 2287.13 1542.36 2284.73 1542.36C2283.24 1542.36 2282 1542.09 2281.02 1541.53C2280.06 1540.96 2279.3 1540.3 2278.75 1539.55H2278.53C2278.58 1539.96 2278.63 1540.48 2278.68 1541.1C2278.73 1541.73 2278.75 1542.27 2278.75 1542.72V1550.64H2275.58V1522.71H2278.17L2278.61 1525.33H2278.75C2279.33 1524.49 2280.08 1523.79 2281.02 1523.21C2281.95 1522.63 2283.2 1522.35 2284.76 1522.35ZM2284.19 1525.01C2282.22 1525.01 2280.83 1525.56 2280.01 1526.67C2279.22 1527.77 2278.8 1529.45 2278.75 1531.71V1532.32C2278.75 1534.69 2279.13 1536.53 2279.9 1537.83C2280.69 1539.1 2282.15 1539.73 2284.26 1539.73C2285.43 1539.73 2286.39 1539.41 2287.14 1538.76C2287.91 1538.11 2288.47 1537.24 2288.83 1536.13C2289.21 1535.01 2289.41 1533.72 2289.41 1532.28C2289.41 1530.07 2288.97 1528.31 2288.11 1526.99C2287.27 1525.67 2285.96 1525.01 2284.19 1525.01ZM2305.04 1522.38C2307.39 1522.38 2309.13 1522.9 2310.26 1523.93C2311.39 1524.96 2311.95 1526.61 2311.95 1528.86V1542H2309.65L2309.03 1539.27H2308.89C2308.05 1540.32 2307.16 1541.1 2306.23 1541.61C2305.31 1542.11 2304.04 1542.36 2302.41 1542.36C2300.66 1542.36 2299.21 1541.91 2298.05 1540.99C2296.9 1540.06 2296.33 1538.61 2296.33 1536.64C2296.33 1534.72 2297.08 1533.24 2298.59 1532.21C2300.11 1531.15 2302.43 1530.58 2305.58 1530.48L2308.85 1530.37V1529.22C2308.85 1527.61 2308.51 1526.5 2307.81 1525.87C2307.11 1525.25 2306.13 1524.94 2304.86 1524.94C2303.85 1524.94 2302.89 1525.09 2301.98 1525.41C2301.07 1525.69 2300.21 1526.03 2299.42 1526.41L2298.45 1524.04C2299.29 1523.58 2300.29 1523.2 2301.44 1522.89C2302.59 1522.55 2303.79 1522.38 2305.04 1522.38ZM2305.97 1532.68C2303.57 1532.77 2301.91 1533.16 2300.97 1533.83C2300.06 1534.5 2299.6 1535.45 2299.6 1536.67C2299.6 1537.75 2299.93 1538.55 2300.57 1539.05C2301.25 1539.55 2302.1 1539.81 2303.13 1539.81C2304.76 1539.81 2306.12 1539.36 2307.2 1538.47C2308.28 1537.56 2308.82 1536.17 2308.82 1534.3V1532.57L2305.97 1532.68ZM2331.23 1525.37H2324.93V1542H2321.8V1525.37H2315.57V1522.71H2331.23V1525.37ZM2351.46 1532.32C2351.46 1535.51 2350.64 1537.98 2349.01 1539.73C2347.4 1541.49 2345.22 1542.36 2342.46 1542.36C2340.75 1542.36 2339.23 1541.98 2337.88 1541.21C2336.56 1540.42 2335.52 1539.28 2334.75 1537.79C2333.98 1536.28 2333.6 1534.45 2333.6 1532.32C2333.6 1529.13 2334.4 1526.67 2336.01 1524.94C2337.62 1523.21 2339.8 1522.35 2342.56 1522.35C2344.32 1522.35 2345.85 1522.74 2347.17 1523.53C2348.52 1524.3 2349.56 1525.43 2350.3 1526.92C2351.07 1528.38 2351.46 1530.18 2351.46 1532.32ZM2336.88 1532.32C2336.88 1534.6 2337.32 1536.41 2338.21 1537.75C2339.12 1539.07 2340.56 1539.73 2342.53 1539.73C2344.47 1539.73 2345.9 1539.07 2346.81 1537.75C2347.72 1536.41 2348.18 1534.6 2348.18 1532.32C2348.18 1530.04 2347.72 1528.25 2346.81 1526.95C2345.9 1525.66 2344.46 1525.01 2342.49 1525.01C2340.52 1525.01 2339.1 1525.66 2338.21 1526.95C2337.32 1528.25 2336.88 1530.04 2336.88 1532.32ZM2365.66 1522.35C2368.03 1522.35 2369.94 1523.17 2371.38 1524.83C2372.84 1526.49 2373.58 1528.98 2373.58 1532.32C2373.58 1535.61 2372.84 1538.1 2371.38 1539.81C2369.94 1541.51 2368.02 1542.36 2365.62 1542.36C2364.13 1542.36 2362.9 1542.09 2361.91 1541.53C2360.95 1540.96 2360.2 1540.3 2359.64 1539.55H2359.43C2359.48 1539.96 2359.52 1540.48 2359.57 1541.1C2359.62 1541.73 2359.64 1542.27 2359.64 1542.72V1550.64H2356.48V1522.71H2359.07L2359.5 1525.33H2359.64C2360.22 1524.49 2360.98 1523.79 2361.91 1523.21C2362.85 1522.63 2364.1 1522.35 2365.66 1522.35ZM2365.08 1525.01C2363.11 1525.01 2361.72 1525.56 2360.9 1526.67C2360.11 1527.77 2359.69 1529.45 2359.64 1531.71V1532.32C2359.64 1534.69 2360.03 1536.53 2360.8 1537.83C2361.59 1539.1 2363.04 1539.73 2365.15 1539.73C2366.33 1539.73 2367.29 1539.41 2368.03 1538.76C2368.8 1538.11 2369.36 1537.24 2369.72 1536.13C2370.11 1535.01 2370.3 1533.72 2370.3 1532.28C2370.3 1530.07 2369.87 1528.31 2369 1526.99C2368.16 1525.67 2366.86 1525.01 2365.08 1525.01ZM2378.62 1542V1522.71H2381.79V1530.63H2386.8C2389.29 1530.63 2391.14 1531.08 2392.34 1531.99C2393.54 1532.91 2394.14 1534.27 2394.14 1536.1C2394.14 1537.9 2393.55 1539.34 2392.38 1540.42C2391.2 1541.47 2389.29 1542 2386.65 1542H2378.62ZM2397.34 1542V1522.71H2400.51V1542H2397.34ZM2386.36 1539.45C2387.73 1539.45 2388.85 1539.22 2389.71 1538.76C2390.58 1538.28 2391.01 1537.45 2391.01 1536.28C2391.01 1535.1 2390.61 1534.31 2389.82 1533.9C2389.03 1533.47 2387.89 1533.25 2386.4 1533.25H2381.79V1539.45H2386.36ZM2405.71 1547.12L2409.05 1537.54L2412.04 1538.57L2407.73 1547.91L2405.71 1547.12ZM2220.91 1565.71V1568.37H2212.3V1585H2209.14V1565.71H2220.91ZM2231.81 1565.35C2233.47 1565.35 2234.88 1565.71 2236.06 1566.43C2237.26 1567.15 2238.17 1568.17 2238.79 1569.49C2239.44 1570.78 2239.77 1572.31 2239.77 1574.06V1575.97H2226.55C2226.6 1578.15 2227.15 1579.82 2228.21 1580.97C2229.29 1582.1 2230.79 1582.66 2232.71 1582.66C2233.93 1582.66 2235.01 1582.55 2235.95 1582.34C2236.91 1582.1 2237.89 1581.76 2238.9 1581.33V1584.1C2237.92 1584.53 2236.95 1584.85 2235.99 1585.04C2235.03 1585.25 2233.89 1585.36 2232.57 1585.36C2230.74 1585.36 2229.12 1584.99 2227.71 1584.25C2226.31 1583.5 2225.22 1582.4 2224.43 1580.93C2223.66 1579.45 2223.28 1577.63 2223.28 1575.5C2223.28 1573.39 2223.63 1571.57 2224.32 1570.06C2225.04 1568.55 2226.04 1567.39 2227.31 1566.57C2228.61 1565.75 2230.11 1565.35 2231.81 1565.35ZM2231.77 1567.94C2230.26 1567.94 2229.06 1568.43 2228.17 1569.41C2227.31 1570.37 2226.79 1571.72 2226.63 1573.45H2236.45C2236.43 1571.81 2236.05 1570.49 2235.3 1569.49C2234.56 1568.45 2233.38 1567.94 2231.77 1567.94ZM2247.85 1565.71V1573.73H2258.32V1565.71H2261.49V1585H2258.32V1576.4H2247.85V1585H2244.68V1565.71H2247.85ZM2275.05 1565.35C2276.71 1565.35 2278.13 1565.71 2279.3 1566.43C2280.5 1567.15 2281.41 1568.17 2282.04 1569.49C2282.69 1570.78 2283.01 1572.31 2283.01 1574.06V1575.97H2269.8C2269.85 1578.15 2270.4 1579.82 2271.45 1580.97C2272.53 1582.1 2274.03 1582.66 2275.95 1582.66C2277.18 1582.66 2278.26 1582.55 2279.19 1582.34C2280.15 1582.1 2281.14 1581.76 2282.15 1581.33V1584.1C2281.16 1584.53 2280.19 1584.85 2279.23 1585.04C2278.27 1585.25 2277.13 1585.36 2275.81 1585.36C2273.99 1585.36 2272.37 1584.99 2270.95 1584.25C2269.56 1583.5 2268.47 1582.4 2267.67 1580.93C2266.91 1579.45 2266.52 1577.63 2266.52 1575.5C2266.52 1573.39 2266.87 1571.57 2267.57 1570.06C2268.29 1568.55 2269.28 1567.39 2270.55 1566.57C2271.85 1565.75 2273.35 1565.35 2275.05 1565.35ZM2275.02 1567.94C2273.51 1567.94 2272.31 1568.43 2271.42 1569.41C2270.55 1570.37 2270.04 1571.72 2269.87 1573.45H2279.7C2279.67 1571.81 2279.29 1570.49 2278.55 1569.49C2277.8 1568.45 2276.63 1567.94 2275.02 1567.94ZM2297.1 1565.35C2299.48 1565.35 2301.39 1566.17 2302.83 1567.83C2304.29 1569.49 2305.02 1571.98 2305.02 1575.32C2305.02 1578.61 2304.29 1581.1 2302.83 1582.81C2301.39 1584.51 2299.47 1585.36 2297.07 1585.36C2295.58 1585.36 2294.34 1585.09 2293.36 1584.53C2292.4 1583.96 2291.64 1583.3 2291.09 1582.55H2290.87C2290.92 1582.96 2290.97 1583.48 2291.02 1584.1C2291.07 1584.73 2291.09 1585.27 2291.09 1585.72V1593.64H2287.92V1565.71H2290.51L2290.95 1568.33H2291.09C2291.67 1567.49 2292.42 1566.79 2293.36 1566.21C2294.29 1565.63 2295.54 1565.35 2297.1 1565.35ZM2296.53 1568.01C2294.56 1568.01 2293.17 1568.56 2292.35 1569.67C2291.56 1570.77 2291.14 1572.45 2291.09 1574.71V1575.32C2291.09 1577.69 2291.47 1579.53 2292.24 1580.83C2293.03 1582.1 2294.49 1582.73 2296.6 1582.73C2297.77 1582.73 2298.73 1582.41 2299.48 1581.76C2300.25 1581.11 2300.81 1580.24 2301.17 1579.13C2301.55 1578.01 2301.75 1576.72 2301.75 1575.28C2301.75 1573.07 2301.31 1571.31 2300.45 1569.99C2299.61 1568.67 2298.3 1568.01 2296.53 1568.01ZM2317.38 1565.38C2319.73 1565.38 2321.47 1565.9 2322.6 1566.93C2323.73 1567.96 2324.29 1569.61 2324.29 1571.86V1585H2321.99L2321.37 1582.27H2321.23C2320.39 1583.32 2319.5 1584.1 2318.57 1584.61C2317.65 1585.11 2316.38 1585.36 2314.75 1585.36C2313 1585.36 2311.55 1584.91 2310.39 1583.99C2309.24 1583.06 2308.67 1581.61 2308.67 1579.64C2308.67 1577.72 2309.42 1576.24 2310.93 1575.21C2312.45 1574.15 2314.77 1573.58 2317.92 1573.48L2321.19 1573.37V1572.22C2321.19 1570.61 2320.85 1569.5 2320.15 1568.87C2319.45 1568.25 2318.47 1567.94 2317.2 1567.94C2316.19 1567.94 2315.23 1568.09 2314.32 1568.41C2313.41 1568.69 2312.55 1569.03 2311.76 1569.41L2310.79 1567.04C2311.63 1566.58 2312.63 1566.2 2313.78 1565.89C2314.93 1565.55 2316.13 1565.38 2317.38 1565.38ZM2318.31 1575.68C2315.91 1575.77 2314.25 1576.16 2313.31 1576.83C2312.4 1577.5 2311.94 1578.45 2311.94 1579.67C2311.94 1580.75 2312.27 1581.55 2312.91 1582.05C2313.59 1582.55 2314.44 1582.81 2315.47 1582.81C2317.1 1582.81 2318.46 1582.36 2319.54 1581.47C2320.62 1580.56 2321.16 1579.17 2321.16 1577.3V1575.57L2318.31 1575.68ZM2343.57 1568.37H2337.27V1585H2334.14V1568.37H2327.91V1565.71H2343.57V1568.37ZM2363.79 1575.32C2363.79 1578.51 2362.98 1580.98 2361.35 1582.73C2359.74 1584.49 2357.55 1585.36 2354.79 1585.36C2353.09 1585.36 2351.57 1584.98 2350.22 1584.21C2348.9 1583.42 2347.86 1582.28 2347.09 1580.79C2346.32 1579.28 2345.94 1577.45 2345.94 1575.32C2345.94 1572.13 2346.74 1569.67 2348.35 1567.94C2349.96 1566.21 2352.14 1565.35 2354.9 1565.35C2356.65 1565.35 2358.19 1565.74 2359.51 1566.53C2360.85 1567.3 2361.9 1568.43 2362.64 1569.92C2363.41 1571.38 2363.79 1573.18 2363.79 1575.32ZM2349.21 1575.32C2349.21 1577.6 2349.66 1579.41 2350.55 1580.75C2351.46 1582.07 2352.9 1582.73 2354.87 1582.73C2356.81 1582.73 2358.24 1582.07 2359.15 1580.75C2360.06 1579.41 2360.52 1577.6 2360.52 1575.32C2360.52 1573.04 2360.06 1571.25 2359.15 1569.95C2358.24 1568.66 2356.8 1568.01 2354.83 1568.01C2352.86 1568.01 2351.43 1568.66 2350.55 1569.95C2349.66 1571.25 2349.21 1573.04 2349.21 1575.32ZM2378 1565.35C2380.37 1565.35 2382.28 1566.17 2383.72 1567.83C2385.18 1569.49 2385.92 1571.98 2385.92 1575.32C2385.92 1578.61 2385.18 1581.1 2383.72 1582.81C2382.28 1584.51 2380.36 1585.36 2377.96 1585.36C2376.47 1585.36 2375.24 1585.09 2374.25 1584.53C2373.29 1583.96 2372.54 1583.3 2371.98 1582.55H2371.77C2371.82 1582.96 2371.86 1583.48 2371.91 1584.1C2371.96 1584.73 2371.98 1585.27 2371.98 1585.72V1593.64H2368.82V1565.71H2371.41L2371.84 1568.33H2371.98C2372.56 1567.49 2373.32 1566.79 2374.25 1566.21C2375.19 1565.63 2376.44 1565.35 2378 1565.35ZM2377.42 1568.01C2375.45 1568.01 2374.06 1568.56 2373.24 1569.67C2372.45 1570.77 2372.03 1572.45 2371.98 1574.71V1575.32C2371.98 1577.69 2372.37 1579.53 2373.14 1580.83C2373.93 1582.1 2375.38 1582.73 2377.49 1582.73C2378.67 1582.73 2379.63 1582.41 2380.37 1581.76C2381.14 1581.11 2381.7 1580.24 2382.06 1579.13C2382.45 1578.01 2382.64 1576.72 2382.64 1575.28C2382.64 1573.07 2382.21 1571.31 2381.34 1569.99C2380.5 1568.67 2379.2 1568.01 2377.42 1568.01ZM2390.96 1585V1565.71H2394.13V1573.63H2399.14C2401.63 1573.63 2403.48 1574.08 2404.68 1574.99C2405.88 1575.91 2406.48 1577.27 2406.48 1579.1C2406.48 1580.9 2405.89 1582.34 2404.72 1583.42C2403.54 1584.47 2401.63 1585 2398.99 1585H2390.96ZM2409.68 1585V1565.71H2412.85V1585H2409.68ZM2398.7 1582.45C2400.07 1582.45 2401.19 1582.22 2402.05 1581.76C2402.92 1581.28 2403.35 1580.45 2403.35 1579.28C2403.35 1578.1 2402.95 1577.31 2402.16 1576.9C2401.37 1576.47 2400.23 1576.25 2398.74 1576.25H2394.13V1582.45H2398.7Z" fill="#5F5E5E"/>
<circle cx="895.5" cy="1557.5" r="216.5" fill="#3B3B3B"/>
<path d="M807.597 1537.3V1560.12H810.873V1569.77H807.777V1563H790.101V1569.77H787.005V1560.12H788.985C789.849 1558.63 790.665 1556.97 791.433 1555.12C792.225 1553.27 792.921 1551.34 793.521 1549.32C794.121 1547.28 794.613 1545.24 794.997 1543.2C795.381 1541.16 795.621 1539.19 795.717 1537.3H807.597ZM798.561 1540.21C798.465 1541.61 798.225 1543.18 797.841 1544.93C797.481 1546.68 797.013 1548.48 796.437 1550.33C795.885 1552.15 795.261 1553.92 794.565 1555.62C793.893 1557.33 793.173 1558.83 792.405 1560.12H804.393V1540.21H798.561ZM822.192 1543.35C823.848 1543.35 825.264 1543.71 826.44 1544.43C827.64 1545.15 828.552 1546.17 829.176 1547.49C829.824 1548.78 830.148 1550.31 830.148 1552.06V1553.97H816.936C816.984 1556.15 817.536 1557.82 818.592 1558.97C819.672 1560.1 821.172 1560.66 823.092 1560.66C824.316 1560.66 825.396 1560.55 826.332 1560.34C827.292 1560.1 828.276 1559.76 829.284 1559.33V1562.1C828.3 1562.53 827.328 1562.85 826.368 1563.04C825.408 1563.25 824.268 1563.36 822.948 1563.36C821.124 1563.36 819.504 1562.99 818.088 1562.25C816.696 1561.5 815.604 1560.4 814.812 1558.93C814.044 1557.45 813.66 1555.63 813.66 1553.5C813.66 1551.39 814.008 1549.57 814.704 1548.06C815.424 1546.55 816.42 1545.39 817.692 1544.57C818.988 1543.75 820.488 1543.35 822.192 1543.35ZM822.156 1545.94C820.644 1545.94 819.444 1546.43 818.556 1547.41C817.692 1548.37 817.176 1549.72 817.008 1551.45H826.836C826.812 1549.81 826.428 1548.49 825.684 1547.49C824.94 1546.45 823.764 1545.94 822.156 1545.94ZM846.472 1543.71H849.928L841.684 1552.99L850.612 1563H846.94L838.228 1553.21V1563H835.06V1543.71H838.228V1553.07L846.472 1543.71ZM870.188 1553.32C870.188 1556.51 869.372 1558.98 867.74 1560.73C866.132 1562.49 863.948 1563.36 861.188 1563.36C859.484 1563.36 857.96 1562.98 856.616 1562.21C855.296 1561.42 854.252 1560.28 853.484 1558.79C852.716 1557.28 852.332 1555.45 852.332 1553.32C852.332 1550.13 853.136 1547.67 854.744 1545.94C856.352 1544.21 858.536 1543.35 861.296 1543.35C863.048 1543.35 864.584 1543.74 865.904 1544.53C867.248 1545.3 868.292 1546.43 869.036 1547.92C869.804 1549.38 870.188 1551.18 870.188 1553.32ZM855.608 1553.32C855.608 1555.6 856.052 1557.41 856.94 1558.75C857.852 1560.07 859.292 1560.73 861.26 1560.73C863.204 1560.73 864.632 1560.07 865.544 1558.75C866.456 1557.41 866.912 1555.6 866.912 1553.32C866.912 1551.04 866.456 1549.25 865.544 1547.95C864.632 1546.66 863.192 1546.01 861.224 1546.01C859.256 1546.01 857.828 1546.66 856.94 1547.95C856.052 1549.25 855.608 1551.04 855.608 1553.32ZM884.388 1543.35C886.764 1543.35 888.672 1544.17 890.112 1545.83C891.576 1547.49 892.308 1549.98 892.308 1553.32C892.308 1556.61 891.576 1559.1 890.112 1560.81C888.672 1562.51 886.752 1563.36 884.352 1563.36C882.864 1563.36 881.628 1563.09 880.644 1562.53C879.684 1561.96 878.928 1561.3 878.376 1560.55H878.16C878.208 1560.96 878.256 1561.48 878.304 1562.1C878.352 1562.73 878.376 1563.27 878.376 1563.72V1571.64H875.208V1543.71H877.8L878.232 1546.33H878.376C878.952 1545.49 879.708 1544.79 880.644 1544.21C881.58 1543.63 882.828 1543.35 884.388 1543.35ZM883.812 1546.01C881.844 1546.01 880.452 1546.56 879.636 1547.67C878.844 1548.77 878.424 1550.45 878.376 1552.71V1553.32C878.376 1555.69 878.76 1557.53 879.528 1558.83C880.32 1560.1 881.772 1560.73 883.884 1560.73C885.06 1560.73 886.02 1560.41 886.764 1559.76C887.532 1559.11 888.096 1558.24 888.456 1557.13C888.84 1556.01 889.032 1554.72 889.032 1553.28C889.032 1551.07 888.6 1549.31 887.736 1547.99C886.896 1546.67 885.588 1546.01 883.812 1546.01ZM904.665 1543.38C907.017 1543.38 908.757 1543.9 909.885 1544.93C911.013 1545.96 911.577 1547.61 911.577 1549.86V1563H909.273L908.661 1560.27H908.517C907.677 1561.32 906.789 1562.1 905.853 1562.61C904.941 1563.11 903.669 1563.36 902.037 1563.36C900.285 1563.36 898.833 1562.91 897.681 1561.99C896.529 1561.06 895.953 1559.61 895.953 1557.64C895.953 1555.72 896.709 1554.24 898.221 1553.21C899.733 1552.15 902.061 1551.58 905.205 1551.48L908.481 1551.37V1550.22C908.481 1548.61 908.133 1547.5 907.437 1546.87C906.741 1546.25 905.757 1545.94 904.485 1545.94C903.477 1545.94 902.517 1546.09 901.605 1546.41C900.693 1546.69 899.841 1547.03 899.049 1547.41L898.077 1545.04C898.917 1544.58 899.913 1544.2 901.065 1543.89C902.217 1543.55 903.417 1543.38 904.665 1543.38ZM905.601 1553.68C903.201 1553.77 901.533 1554.16 900.597 1554.83C899.685 1555.5 899.229 1556.45 899.229 1557.67C899.229 1558.75 899.553 1559.55 900.201 1560.05C900.873 1560.55 901.725 1560.81 902.757 1560.81C904.389 1560.81 905.745 1560.36 906.825 1559.47C907.905 1558.56 908.445 1557.17 908.445 1555.3V1553.57L905.601 1553.68ZM930.857 1546.37H924.557V1563H921.425V1546.37H915.197V1543.71H930.857V1546.37ZM951.082 1553.32C951.082 1556.51 950.266 1558.98 948.634 1560.73C947.026 1562.49 944.842 1563.36 942.082 1563.36C940.378 1563.36 938.854 1562.98 937.51 1562.21C936.19 1561.42 935.146 1560.28 934.378 1558.79C933.61 1557.28 933.226 1555.45 933.226 1553.32C933.226 1550.13 934.03 1547.67 935.638 1545.94C937.246 1544.21 939.43 1543.35 942.19 1543.35C943.942 1543.35 945.478 1543.74 946.798 1544.53C948.142 1545.3 949.186 1546.43 949.93 1547.92C950.698 1549.38 951.082 1551.18 951.082 1553.32ZM936.502 1553.32C936.502 1555.6 936.946 1557.41 937.834 1558.75C938.746 1560.07 940.186 1560.73 942.154 1560.73C944.098 1560.73 945.526 1560.07 946.438 1558.75C947.35 1557.41 947.806 1555.6 947.806 1553.32C947.806 1551.04 947.35 1549.25 946.438 1547.95C945.526 1546.66 944.086 1546.01 942.118 1546.01C940.15 1546.01 938.722 1546.66 937.834 1547.95C936.946 1549.25 936.502 1551.04 936.502 1553.32ZM965.283 1543.35C967.659 1543.35 969.567 1544.17 971.007 1545.83C972.471 1547.49 973.203 1549.98 973.203 1553.32C973.203 1556.61 972.471 1559.1 971.007 1560.81C969.567 1562.51 967.647 1563.36 965.247 1563.36C963.759 1563.36 962.523 1563.09 961.539 1562.53C960.579 1561.96 959.823 1561.3 959.271 1560.55H959.055C959.103 1560.96 959.151 1561.48 959.199 1562.1C959.247 1562.73 959.271 1563.27 959.271 1563.72V1571.64H956.103V1543.71H958.695L959.127 1546.33H959.271C959.847 1545.49 960.603 1544.79 961.539 1544.21C962.475 1543.63 963.723 1543.35 965.283 1543.35ZM964.707 1546.01C962.739 1546.01 961.347 1546.56 960.531 1547.67C959.739 1548.77 959.319 1550.45 959.271 1552.71V1553.32C959.271 1555.69 959.655 1557.53 960.423 1558.83C961.215 1560.1 962.667 1560.73 964.779 1560.73C965.955 1560.73 966.915 1560.41 967.659 1559.76C968.427 1559.11 968.991 1558.24 969.351 1557.13C969.735 1556.01 969.927 1554.72 969.927 1553.28C969.927 1551.07 969.495 1549.31 968.631 1547.99C967.791 1546.67 966.483 1546.01 964.707 1546.01ZM978.251 1563V1543.71H981.419V1551.63H986.423C988.919 1551.63 990.767 1552.08 991.967 1552.99C993.167 1553.91 993.767 1555.27 993.767 1557.1C993.767 1558.9 993.179 1560.34 992.003 1561.42C990.827 1562.47 988.919 1563 986.279 1563H978.251ZM996.971 1563V1543.71H1000.14V1563H996.971ZM985.991 1560.45C987.359 1560.45 988.475 1560.22 989.339 1559.76C990.203 1559.28 990.635 1558.45 990.635 1557.28C990.635 1556.1 990.239 1555.31 989.447 1554.9C988.655 1554.47 987.515 1554.25 986.027 1554.25H981.419V1560.45H985.991Z" fill="#5F5E5E"/>
<circle cx="691.5" cy="2379.5" r="216.5" fill="#3B3B3B"/>
<path d="M601.644 2346.3C605.004 2346.3 607.452 2346.96 608.988 2348.28C610.524 2349.6 611.292 2351.46 611.292 2353.86C611.292 2355.27 610.968 2356.6 610.32 2357.85C609.696 2359.08 608.628 2360.07 607.116 2360.84C605.628 2361.61 603.6 2361.99 601.032 2361.99H598.08V2372H594.84V2346.3H601.644ZM601.356 2349.07H598.08V2359.22H600.672C603.12 2359.22 604.944 2358.82 606.144 2358.03C607.344 2357.24 607.944 2355.9 607.944 2354C607.944 2352.34 607.416 2351.11 606.36 2350.29C605.304 2349.48 603.636 2349.07 601.356 2349.07ZM623.513 2352.38C625.865 2352.38 627.605 2352.9 628.733 2353.93C629.861 2354.96 630.425 2356.6 630.425 2358.86V2372H628.121L627.509 2369.26H627.365C626.525 2370.32 625.637 2371.1 624.701 2371.6C623.789 2372.11 622.517 2372.36 620.885 2372.36C619.133 2372.36 617.681 2371.9 616.529 2370.99C615.377 2370.06 614.801 2368.6 614.801 2366.64C614.801 2364.72 615.557 2363.24 617.069 2362.21C618.581 2361.15 620.909 2360.58 624.053 2360.48L627.329 2360.37V2359.22C627.329 2357.61 626.981 2356.5 626.285 2355.87C625.589 2355.25 624.605 2354.94 623.333 2354.94C622.325 2354.94 621.365 2355.09 620.453 2355.4C619.541 2355.69 618.689 2356.03 617.897 2356.41L616.925 2354.04C617.765 2353.58 618.761 2353.2 619.913 2352.88C621.065 2352.55 622.265 2352.38 623.513 2352.38ZM624.449 2362.68C622.049 2362.77 620.381 2363.16 619.445 2363.83C618.533 2364.5 618.077 2365.45 618.077 2366.67C618.077 2367.75 618.401 2368.54 619.049 2369.05C619.721 2369.55 620.573 2369.8 621.605 2369.8C623.237 2369.8 624.593 2369.36 625.673 2368.47C626.753 2367.56 627.293 2366.17 627.293 2364.3V2362.57L624.449 2362.68ZM641.46 2352.34C643.668 2352.34 645.42 2352.79 646.716 2353.68C648.036 2354.54 648.696 2355.79 648.696 2357.42C648.696 2358.6 648.372 2359.53 647.724 2360.23C647.076 2360.9 646.188 2361.39 645.06 2361.7V2361.85C645.828 2362.06 646.536 2362.36 647.184 2362.75C647.832 2363.13 648.348 2363.64 648.732 2364.26C649.14 2364.88 649.344 2365.69 649.344 2366.67C649.344 2368.28 648.672 2369.64 647.328 2370.74C646.008 2371.82 643.932 2372.36 641.1 2372.36C639.708 2372.36 638.448 2372.24 637.32 2372C636.192 2371.78 635.256 2371.48 634.512 2371.1V2368.26C635.328 2368.64 636.288 2368.99 637.392 2369.3C638.52 2369.61 639.744 2369.77 641.064 2369.77C642.504 2369.77 643.716 2369.53 644.7 2369.05C645.708 2368.54 646.212 2367.69 646.212 2366.49C646.212 2364.33 644.376 2363.25 640.704 2363.25H638.112V2360.66H640.2C641.856 2360.66 643.176 2360.44 644.16 2360.01C645.168 2359.56 645.672 2358.79 645.672 2357.71C645.672 2356.8 645.288 2356.11 644.52 2355.66C643.776 2355.2 642.696 2354.97 641.28 2354.97C640.224 2354.97 639.288 2355.08 638.472 2355.3C637.68 2355.49 636.804 2355.79 635.844 2356.2L634.728 2353.68C636.744 2352.79 638.988 2352.34 641.46 2352.34ZM663.213 2352.34C665.589 2352.34 667.497 2353.17 668.937 2354.83C670.401 2356.48 671.133 2358.98 671.133 2362.32C671.133 2365.6 670.401 2368.1 668.937 2369.8C667.497 2371.51 665.577 2372.36 663.177 2372.36C661.689 2372.36 660.453 2372.08 659.469 2371.53C658.509 2370.96 657.753 2370.3 657.201 2369.55H656.985C657.033 2369.96 657.081 2370.48 657.129 2371.1C657.177 2371.72 657.201 2372.26 657.201 2372.72V2380.64H654.033V2352.7H656.625L657.057 2355.33H657.201C657.777 2354.49 658.533 2353.78 659.469 2353.21C660.405 2352.63 661.653 2352.34 663.213 2352.34ZM662.637 2355.01C660.669 2355.01 659.277 2355.56 658.461 2356.66C657.669 2357.77 657.249 2359.45 657.201 2361.7V2362.32C657.201 2364.69 657.585 2366.53 658.353 2367.82C659.145 2369.1 660.597 2369.73 662.709 2369.73C663.885 2369.73 664.845 2369.41 665.589 2368.76C666.357 2368.11 666.921 2367.24 667.281 2366.13C667.665 2365 667.857 2363.72 667.857 2362.28C667.857 2360.07 667.425 2358.31 666.561 2356.99C665.721 2355.67 664.413 2355.01 662.637 2355.01ZM683.489 2352.38C685.841 2352.38 687.581 2352.9 688.709 2353.93C689.837 2354.96 690.401 2356.6 690.401 2358.86V2372H688.097L687.485 2369.26H687.341C686.501 2370.32 685.613 2371.1 684.677 2371.6C683.765 2372.11 682.493 2372.36 680.861 2372.36C679.109 2372.36 677.657 2371.9 676.505 2370.99C675.353 2370.06 674.777 2368.6 674.777 2366.64C674.777 2364.72 675.533 2363.24 677.045 2362.21C678.557 2361.15 680.885 2360.58 684.029 2360.48L687.305 2360.37V2359.22C687.305 2357.61 686.957 2356.5 686.261 2355.87C685.565 2355.25 684.581 2354.94 683.309 2354.94C682.301 2354.94 681.341 2355.09 680.429 2355.4C679.517 2355.69 678.665 2356.03 677.873 2356.41L676.901 2354.04C677.741 2353.58 678.737 2353.2 679.889 2352.88C681.041 2352.55 682.241 2352.38 683.489 2352.38ZM684.425 2362.68C682.025 2362.77 680.357 2363.16 679.421 2363.83C678.509 2364.5 678.053 2365.45 678.053 2366.67C678.053 2367.75 678.377 2368.54 679.025 2369.05C679.697 2369.55 680.549 2369.8 681.581 2369.8C683.213 2369.8 684.569 2369.36 685.649 2368.47C686.729 2367.56 687.269 2366.17 687.269 2364.3V2362.57L684.425 2362.68ZM695.353 2360.41C695.353 2356.18 695.989 2352.9 697.261 2350.54C698.533 2348.17 700.585 2346.68 703.417 2346.08C704.977 2345.74 706.501 2345.44 707.989 2345.18C709.477 2344.92 710.869 2344.68 712.165 2344.46L712.705 2347.23C711.865 2347.35 710.917 2347.51 709.861 2347.7C708.805 2347.87 707.761 2348.05 706.729 2348.24C705.697 2348.41 704.809 2348.58 704.065 2348.74C702.505 2349.08 701.269 2349.9 700.357 2351.19C699.445 2352.46 698.929 2354.46 698.809 2357.17H699.025C699.361 2356.71 699.817 2356.24 700.393 2355.76C700.993 2355.28 701.701 2354.88 702.517 2354.54C703.357 2354.2 704.305 2354.04 705.361 2354.04C707.857 2354.04 709.741 2354.84 711.013 2356.45C712.285 2358.06 712.921 2360.14 712.921 2362.71C712.921 2364.85 712.549 2366.64 711.805 2368.08C711.061 2369.52 710.029 2370.6 708.709 2371.32C707.389 2372.01 705.853 2372.36 704.101 2372.36C701.437 2372.36 699.313 2371.34 697.729 2369.3C696.145 2367.26 695.353 2364.3 695.353 2360.41ZM704.353 2369.73C705.913 2369.73 707.173 2369.23 708.133 2368.22C709.093 2367.21 709.573 2365.48 709.573 2363.04C709.573 2361.07 709.201 2359.52 708.457 2358.39C707.737 2357.24 706.537 2356.66 704.857 2356.66C703.801 2356.66 702.841 2356.9 701.977 2357.38C701.113 2357.84 700.393 2358.37 699.817 2358.97C699.241 2359.57 698.833 2360.07 698.593 2360.48C698.593 2361.66 698.677 2362.8 698.845 2363.9C699.013 2365 699.301 2366 699.709 2366.89C700.141 2367.75 700.729 2368.45 701.473 2368.98C702.241 2369.48 703.201 2369.73 704.353 2369.73ZM734.688 2362.32C734.688 2365.51 733.872 2367.98 732.24 2369.73C730.632 2371.48 728.448 2372.36 725.688 2372.36C723.984 2372.36 722.46 2371.98 721.116 2371.21C719.796 2370.42 718.752 2369.28 717.984 2367.79C717.216 2366.28 716.832 2364.45 716.832 2362.32C716.832 2359.12 717.636 2356.66 719.244 2354.94C720.852 2353.21 723.036 2352.34 725.796 2352.34C727.548 2352.34 729.084 2352.74 730.404 2353.53C731.748 2354.3 732.792 2355.43 733.536 2356.92C734.304 2358.38 734.688 2360.18 734.688 2362.32ZM720.108 2362.32C720.108 2364.6 720.552 2366.41 721.44 2367.75C722.352 2369.07 723.792 2369.73 725.76 2369.73C727.704 2369.73 729.132 2369.07 730.044 2367.75C730.956 2366.41 731.412 2364.6 731.412 2362.32C731.412 2360.04 730.956 2358.25 730.044 2356.95C729.132 2355.66 727.692 2355.01 725.724 2355.01C723.756 2355.01 722.328 2355.66 721.44 2356.95C720.552 2358.25 720.108 2360.04 720.108 2362.32ZM752.677 2355.37H746.377V2372H743.245V2355.37H737.017V2352.7H752.677V2355.37ZM767.89 2352.7H771.346L763.102 2361.99L772.03 2372H768.358L759.646 2362.21V2372H756.478V2352.7H759.646V2362.06L767.89 2352.7ZM782.841 2352.38C785.193 2352.38 786.933 2352.9 788.061 2353.93C789.189 2354.96 789.753 2356.6 789.753 2358.86V2372H787.449L786.837 2369.26H786.693C785.853 2370.32 784.965 2371.1 784.029 2371.6C783.117 2372.11 781.845 2372.36 780.213 2372.36C778.461 2372.36 777.009 2371.9 775.857 2370.99C774.705 2370.06 774.129 2368.6 774.129 2366.64C774.129 2364.72 774.885 2363.24 776.397 2362.21C777.909 2361.15 780.237 2360.58 783.381 2360.48L786.657 2360.37V2359.22C786.657 2357.61 786.309 2356.5 785.613 2355.87C784.917 2355.25 783.933 2354.94 782.661 2354.94C781.653 2354.94 780.693 2355.09 779.781 2355.4C778.869 2355.69 778.017 2356.03 777.225 2356.41L776.253 2354.04C777.093 2353.58 778.089 2353.2 779.241 2352.88C780.393 2352.55 781.593 2352.38 782.841 2352.38ZM783.777 2362.68C781.377 2362.77 779.709 2363.16 778.773 2363.83C777.861 2364.5 777.405 2365.45 777.405 2366.67C777.405 2367.75 777.729 2368.54 778.377 2369.05C779.049 2369.55 779.901 2369.8 780.933 2369.8C782.565 2369.8 783.921 2369.36 785.001 2368.47C786.081 2367.56 786.621 2366.17 786.621 2364.3V2362.57L783.777 2362.68ZM651.532 2398.37H645.232V2415H642.1V2398.37H635.872V2395.7H651.532V2398.37ZM662.434 2395.34C664.09 2395.34 665.506 2395.7 666.682 2396.42C667.882 2397.14 668.794 2398.16 669.418 2399.48C670.066 2400.78 670.39 2402.3 670.39 2404.06V2405.96H657.178C657.226 2408.15 657.778 2409.82 658.834 2410.97C659.914 2412.1 661.414 2412.66 663.334 2412.66C664.558 2412.66 665.638 2412.55 666.574 2412.34C667.534 2412.1 668.518 2411.76 669.526 2411.33V2414.1C668.542 2414.53 667.57 2414.84 666.61 2415.04C665.65 2415.25 664.51 2415.36 663.19 2415.36C661.366 2415.36 659.746 2414.99 658.33 2414.24C656.938 2413.5 655.846 2412.4 655.054 2410.93C654.286 2409.44 653.902 2407.63 653.902 2405.5C653.902 2403.38 654.25 2401.57 654.946 2400.06C655.666 2398.55 656.662 2397.38 657.934 2396.57C659.23 2395.75 660.73 2395.34 662.434 2395.34ZM662.398 2397.94C660.886 2397.94 659.686 2398.43 658.798 2399.41C657.934 2400.37 657.418 2401.72 657.25 2403.44H667.078C667.054 2401.81 666.67 2400.49 665.926 2399.48C665.182 2398.45 664.006 2397.94 662.398 2397.94ZM683.042 2415.36C681.338 2415.36 679.814 2415.01 678.47 2414.32C677.15 2413.62 676.106 2412.54 675.338 2411.08C674.594 2409.61 674.222 2407.74 674.222 2405.46C674.222 2403.08 674.618 2401.15 675.41 2399.66C676.202 2398.18 677.27 2397.08 678.614 2396.39C679.982 2395.69 681.53 2395.34 683.258 2395.34C684.242 2395.34 685.19 2395.45 686.102 2395.67C687.014 2395.86 687.758 2396.1 688.334 2396.39L687.362 2399.02C686.786 2398.8 686.114 2398.6 685.346 2398.4C684.578 2398.21 683.858 2398.12 683.186 2398.12C679.394 2398.12 677.498 2400.55 677.498 2405.42C677.498 2407.75 677.954 2409.54 678.866 2410.79C679.802 2412.01 681.182 2412.62 683.006 2412.62C684.062 2412.62 684.986 2412.52 685.778 2412.3C686.594 2412.08 687.338 2411.82 688.01 2411.51V2414.32C687.362 2414.65 686.642 2414.9 685.85 2415.07C685.082 2415.26 684.146 2415.36 683.042 2415.36ZM705.919 2398.37H699.619V2415H696.487V2398.37H690.259V2395.7H705.919V2398.37ZM726.145 2405.32C726.145 2408.51 725.329 2410.98 723.697 2412.73C722.089 2414.48 719.905 2415.36 717.145 2415.36C715.441 2415.36 713.917 2414.98 712.573 2414.21C711.253 2413.42 710.209 2412.28 709.441 2410.79C708.673 2409.28 708.289 2407.45 708.289 2405.32C708.289 2402.12 709.093 2399.66 710.701 2397.94C712.309 2396.21 714.493 2395.34 717.253 2395.34C719.005 2395.34 720.541 2395.74 721.861 2396.53C723.205 2397.3 724.249 2398.43 724.993 2399.92C725.761 2401.38 726.145 2403.18 726.145 2405.32ZM711.565 2405.32C711.565 2407.6 712.009 2409.41 712.897 2410.75C713.809 2412.07 715.249 2412.73 717.217 2412.73C719.161 2412.73 720.589 2412.07 721.501 2410.75C722.413 2409.41 722.869 2407.6 722.869 2405.32C722.869 2403.04 722.413 2401.25 721.501 2399.95C720.589 2398.66 719.149 2398.01 717.181 2398.01C715.213 2398.01 713.785 2398.66 712.897 2399.95C712.009 2401.25 711.565 2403.04 711.565 2405.32ZM746.681 2400.56C746.681 2401.76 746.321 2402.7 745.601 2403.37C744.881 2404.04 743.957 2404.5 742.829 2404.74V2404.88C744.029 2405.05 745.073 2405.48 745.961 2406.18C746.849 2406.85 747.293 2407.91 747.293 2409.35C747.293 2410.98 746.681 2412.34 745.457 2413.42C744.257 2414.47 742.265 2415 739.481 2415H731.165V2395.7H739.445C740.813 2395.7 742.037 2395.86 743.117 2396.17C744.221 2396.46 745.085 2396.96 745.709 2397.68C746.357 2398.38 746.681 2399.34 746.681 2400.56ZM743.477 2400.96C743.477 2400.05 743.141 2399.39 742.469 2398.98C741.821 2398.55 740.753 2398.33 739.265 2398.33H734.333V2403.62H738.689C741.881 2403.62 743.477 2402.74 743.477 2400.96ZM744.017 2409.35C744.017 2408.24 743.597 2407.45 742.757 2406.97C741.917 2406.49 740.681 2406.25 739.049 2406.25H734.333V2412.44H739.121C740.705 2412.44 741.917 2412.22 742.757 2411.76C743.597 2411.28 744.017 2410.48 744.017 2409.35Z" fill="#5F5E5E"/>
<circle cx="216.5" cy="2922.5" r="216.5" fill="#3B3B3B"/>
<path d="M121.46 2894.3C124.82 2894.3 127.268 2894.96 128.804 2896.28C130.34 2897.6 131.108 2899.46 131.108 2901.86C131.108 2903.27 130.784 2904.6 130.136 2905.85C129.512 2907.08 128.444 2908.07 126.932 2908.84C125.444 2909.61 123.416 2909.99 120.848 2909.99H117.896V2920H114.656V2894.3H121.46ZM121.172 2897.07H117.896V2907.22H120.488C122.936 2907.22 124.76 2906.82 125.96 2906.03C127.16 2905.24 127.76 2903.9 127.76 2902C127.76 2900.34 127.232 2899.11 126.176 2898.29C125.12 2897.48 123.452 2897.07 121.172 2897.07ZM143.473 2900.34C145.129 2900.34 146.545 2900.7 147.721 2901.42C148.921 2902.14 149.833 2903.16 150.457 2904.48C151.105 2905.78 151.429 2907.3 151.429 2909.06V2910.96H138.217C138.265 2913.15 138.817 2914.82 139.873 2915.97C140.953 2917.1 142.453 2917.66 144.373 2917.66C145.597 2917.66 146.677 2917.55 147.613 2917.34C148.573 2917.1 149.557 2916.76 150.565 2916.33V2919.1C149.581 2919.53 148.609 2919.84 147.649 2920.04C146.689 2920.25 145.549 2920.36 144.229 2920.36C142.405 2920.36 140.785 2919.99 139.369 2919.24C137.977 2918.5 136.885 2917.4 136.093 2915.93C135.325 2914.44 134.941 2912.63 134.941 2910.5C134.941 2908.38 135.289 2906.57 135.985 2905.06C136.705 2903.55 137.701 2902.38 138.973 2901.57C140.269 2900.75 141.769 2900.34 143.473 2900.34ZM143.437 2902.94C141.925 2902.94 140.725 2903.43 139.837 2904.41C138.973 2905.37 138.457 2906.72 138.289 2908.44H148.117C148.093 2906.81 147.709 2905.49 146.965 2904.48C146.221 2903.45 145.045 2902.94 143.437 2902.94ZM168.113 2900.7V2903.37H159.509V2920H156.341V2900.7H168.113ZM168.891 2900.7H172.275L176.451 2911.68C176.811 2912.64 177.135 2913.57 177.423 2914.46C177.711 2915.32 177.927 2916.15 178.071 2916.94H178.215C178.359 2916.34 178.587 2915.56 178.899 2914.6C179.211 2913.62 179.535 2912.63 179.871 2911.65L183.795 2900.7H187.215L178.899 2922.66C178.227 2924.49 177.351 2925.94 176.271 2927.02C175.215 2928.1 173.751 2928.64 171.879 2928.64C171.303 2928.64 170.799 2928.6 170.367 2928.53C169.935 2928.48 169.563 2928.42 169.251 2928.35V2925.83C169.515 2925.88 169.827 2925.93 170.187 2925.98C170.571 2926.02 170.967 2926.05 171.375 2926.05C172.479 2926.05 173.367 2925.74 174.039 2925.11C174.735 2924.49 175.275 2923.66 175.659 2922.63L176.667 2920.07L168.891 2900.7ZM204.252 2920H201.048V2903.33H195.36C195.048 2907.39 194.616 2910.66 194.064 2913.16C193.512 2915.63 192.78 2917.43 191.868 2918.56C190.956 2919.69 189.804 2920.25 188.412 2920.25C188.1 2920.25 187.788 2920.23 187.476 2920.18C187.188 2920.16 186.948 2920.1 186.756 2920V2917.62C186.9 2917.67 187.056 2917.71 187.224 2917.73C187.392 2917.76 187.56 2917.77 187.728 2917.77C189.024 2917.77 190.056 2916.39 190.824 2913.63C191.616 2910.87 192.216 2906.56 192.624 2900.7H204.252V2920ZM211.564 2920H207.892L213.4 2911.9C212.656 2911.71 211.936 2911.41 211.24 2911C210.544 2910.57 209.98 2909.98 209.548 2909.24C209.116 2908.47 208.9 2907.52 208.9 2906.39C208.9 2904.54 209.524 2903.14 210.772 2902.18C212.02 2901.2 213.676 2900.7 215.74 2900.7H224.38V2920H221.212V2912.33H216.532L211.564 2920ZM211.96 2906.43C211.96 2907.53 212.368 2908.36 213.184 2908.91C214.024 2909.44 215.188 2909.7 216.676 2909.7H221.212V2903.33H216.064C214.6 2903.33 213.544 2903.62 212.896 2904.2C212.272 2904.77 211.96 2905.52 211.96 2906.43ZM239.666 2900.34C242.042 2900.34 243.95 2901.17 245.39 2902.83C246.854 2904.48 247.586 2906.98 247.586 2910.32C247.586 2913.6 246.854 2916.1 245.39 2917.8C243.95 2919.51 242.03 2920.36 239.63 2920.36C238.142 2920.36 236.906 2920.08 235.922 2919.53C234.962 2918.96 234.206 2918.3 233.654 2917.55H233.438C233.486 2917.96 233.534 2918.48 233.582 2919.1C233.63 2919.72 233.654 2920.26 233.654 2920.72V2928.64H230.486V2900.7H233.078L233.51 2903.33H233.654C234.23 2902.49 234.986 2901.78 235.922 2901.21C236.858 2900.63 238.106 2900.34 239.666 2900.34ZM239.09 2903.01C237.122 2903.01 235.73 2903.56 234.914 2904.66C234.122 2905.77 233.702 2907.45 233.654 2909.7V2910.32C233.654 2912.69 234.038 2914.53 234.806 2915.82C235.598 2917.1 237.05 2917.73 239.162 2917.73C240.338 2917.73 241.298 2917.41 242.042 2916.76C242.81 2916.11 243.374 2915.24 243.734 2914.13C244.118 2913 244.31 2911.72 244.31 2910.28C244.31 2908.07 243.878 2906.31 243.014 2904.99C242.174 2903.67 240.866 2903.01 239.09 2903.01ZM255.802 2900.7V2908.73H266.278V2900.7H269.446V2920H266.278V2911.4H255.802V2920H252.634V2900.7H255.802ZM275.556 2920V2900.7H278.724V2908.62H283.728C286.224 2908.62 288.072 2909.08 289.272 2909.99C290.472 2910.9 291.072 2912.27 291.072 2914.1C291.072 2915.9 290.484 2917.34 289.308 2918.42C288.132 2919.47 286.224 2920 283.584 2920H275.556ZM294.276 2920V2900.7H297.444V2920H294.276ZM283.296 2917.44C284.664 2917.44 285.78 2917.22 286.644 2916.76C287.508 2916.28 287.94 2915.45 287.94 2914.28C287.94 2913.1 287.544 2912.31 286.752 2911.9C285.96 2911.47 284.82 2911.25 283.332 2911.25H278.724V2917.44H283.296ZM311.028 2900.34C312.684 2900.34 314.1 2900.7 315.276 2901.42C316.476 2902.14 317.388 2903.16 318.012 2904.48C318.66 2905.78 318.984 2907.3 318.984 2909.06V2910.96H305.772C305.82 2913.15 306.372 2914.82 307.428 2915.97C308.508 2917.1 310.008 2917.66 311.928 2917.66C313.152 2917.66 314.232 2917.55 315.168 2917.34C316.128 2917.1 317.112 2916.76 318.12 2916.33V2919.1C317.136 2919.53 316.164 2919.84 315.204 2920.04C314.244 2920.25 313.104 2920.36 311.784 2920.36C309.96 2920.36 308.34 2919.99 306.924 2919.24C305.532 2918.5 304.44 2917.4 303.648 2915.93C302.88 2914.44 302.496 2912.63 302.496 2910.5C302.496 2908.38 302.844 2906.57 303.54 2905.06C304.26 2903.55 305.256 2902.38 306.528 2901.57C307.824 2900.75 309.324 2900.34 311.028 2900.34ZM310.992 2902.94C309.48 2902.94 308.28 2903.43 307.392 2904.41C306.528 2905.37 306.012 2906.72 305.844 2908.44H315.672C315.648 2906.81 315.264 2905.49 314.52 2904.48C313.776 2903.45 312.6 2902.94 310.992 2902.94ZM132.64 2948.56C132.64 2949.76 132.28 2950.7 131.56 2951.37C130.84 2952.04 129.916 2952.5 128.788 2952.74V2952.88C129.988 2953.05 131.032 2953.48 131.92 2954.18C132.808 2954.85 133.252 2955.91 133.252 2957.35C133.252 2958.98 132.64 2960.34 131.416 2961.42C130.216 2962.47 128.224 2963 125.44 2963H117.124V2943.7H125.404C126.772 2943.7 127.996 2943.86 129.076 2944.17C130.18 2944.46 131.044 2944.96 131.668 2945.68C132.316 2946.38 132.64 2947.34 132.64 2948.56ZM129.436 2948.96C129.436 2948.05 129.1 2947.39 128.428 2946.98C127.78 2946.55 126.712 2946.33 125.224 2946.33H120.292V2951.62H124.648C127.84 2951.62 129.436 2950.74 129.436 2948.96ZM129.976 2957.35C129.976 2956.24 129.556 2955.45 128.716 2954.97C127.876 2954.49 126.64 2954.25 125.008 2954.25H120.292V2960.44H125.08C126.664 2960.44 127.876 2960.22 128.716 2959.76C129.556 2959.28 129.976 2958.48 129.976 2957.35ZM137.867 2963V2943.7H141.035V2951.62H146.039C148.535 2951.62 150.383 2952.08 151.583 2952.99C152.783 2953.9 153.383 2955.27 153.383 2957.1C153.383 2958.9 152.795 2960.34 151.619 2961.42C150.443 2962.47 148.535 2963 145.895 2963H137.867ZM156.587 2963V2943.7H159.755V2963H156.587ZM145.607 2960.44C146.975 2960.44 148.091 2960.22 148.955 2959.76C149.819 2959.28 150.251 2958.45 150.251 2957.28C150.251 2956.1 149.855 2955.31 149.063 2954.9C148.271 2954.47 147.131 2954.25 145.643 2954.25H141.035V2960.44H145.607ZM175.066 2943.34C177.442 2943.34 179.35 2944.17 180.79 2945.83C182.254 2947.48 182.986 2949.98 182.986 2953.32C182.986 2956.6 182.254 2959.1 180.79 2960.8C179.35 2962.51 177.43 2963.36 175.03 2963.36C173.542 2963.36 172.306 2963.08 171.322 2962.53C170.362 2961.96 169.606 2961.3 169.054 2960.55H168.838C168.886 2960.96 168.934 2961.48 168.982 2962.1C169.03 2962.72 169.054 2963.26 169.054 2963.72V2971.64H165.886V2943.7H168.478L168.91 2946.33H169.054C169.63 2945.49 170.386 2944.78 171.322 2944.21C172.258 2943.63 173.506 2943.34 175.066 2943.34ZM174.49 2946.01C172.522 2946.01 171.13 2946.56 170.314 2947.66C169.522 2948.77 169.102 2950.45 169.054 2952.7V2953.32C169.054 2955.69 169.438 2957.53 170.206 2958.82C170.998 2960.1 172.45 2960.73 174.562 2960.73C175.738 2960.73 176.698 2960.41 177.442 2959.76C178.21 2959.11 178.774 2958.24 179.134 2957.13C179.518 2956 179.71 2954.72 179.71 2953.28C179.71 2951.07 179.278 2949.31 178.414 2947.99C177.574 2946.67 176.266 2946.01 174.49 2946.01ZM195.343 2943.38C197.695 2943.38 199.435 2943.9 200.563 2944.93C201.691 2945.96 202.255 2947.6 202.255 2949.86V2963H199.951L199.339 2960.26H199.195C198.355 2961.32 197.467 2962.1 196.531 2962.6C195.619 2963.11 194.347 2963.36 192.715 2963.36C190.963 2963.36 189.511 2962.9 188.359 2961.99C187.207 2961.06 186.631 2959.6 186.631 2957.64C186.631 2955.72 187.387 2954.24 188.899 2953.21C190.411 2952.15 192.739 2951.58 195.883 2951.48L199.159 2951.37V2950.22C199.159 2948.61 198.811 2947.5 198.115 2946.87C197.419 2946.25 196.435 2945.94 195.163 2945.94C194.155 2945.94 193.195 2946.09 192.283 2946.4C191.371 2946.69 190.519 2947.03 189.727 2947.41L188.755 2945.04C189.595 2944.58 190.591 2944.2 191.743 2943.88C192.895 2943.55 194.095 2943.38 195.343 2943.38ZM196.279 2953.68C193.879 2953.77 192.211 2954.16 191.275 2954.83C190.363 2955.5 189.907 2956.45 189.907 2957.67C189.907 2958.75 190.231 2959.54 190.879 2960.05C191.551 2960.55 192.403 2960.8 193.435 2960.8C195.067 2960.8 196.423 2960.36 197.503 2959.47C198.583 2958.56 199.123 2957.17 199.123 2955.3V2953.57L196.279 2953.68ZM231.362 2943.7L223.406 2953.06L232.046 2963H228.446L220.094 2953.21V2963H217.142V2953.21L208.79 2963H205.19L213.83 2953.06L205.874 2943.7H209.33L217.142 2953.06V2943.7H220.094V2953.06L227.942 2943.7H231.362ZM241.963 2943.34C243.619 2943.34 245.035 2943.7 246.211 2944.42C247.411 2945.14 248.323 2946.16 248.947 2947.48C249.595 2948.78 249.919 2950.3 249.919 2952.06V2953.96H236.707C236.755 2956.15 237.307 2957.82 238.363 2958.97C239.443 2960.1 240.943 2960.66 242.863 2960.66C244.087 2960.66 245.167 2960.55 246.103 2960.34C247.063 2960.1 248.047 2959.76 249.055 2959.33V2962.1C248.071 2962.53 247.099 2962.84 246.139 2963.04C245.179 2963.25 244.039 2963.36 242.719 2963.36C240.895 2963.36 239.275 2962.99 237.859 2962.24C236.467 2961.5 235.375 2960.4 234.583 2958.93C233.815 2957.44 233.431 2955.63 233.431 2953.5C233.431 2951.38 233.779 2949.57 234.475 2948.06C235.195 2946.55 236.191 2945.38 237.463 2944.57C238.759 2943.75 240.259 2943.34 241.963 2943.34ZM241.927 2945.94C240.415 2945.94 239.215 2946.43 238.327 2947.41C237.463 2948.37 236.947 2949.72 236.779 2951.44H246.607C246.583 2949.81 246.199 2948.49 245.455 2947.48C244.711 2946.45 243.535 2945.94 241.927 2945.94ZM257.999 2943.7V2951.73H268.475V2943.7H271.643V2963H268.475V2954.4H257.999V2963H254.831V2943.7H257.999ZM280.741 2955.48C280.741 2955.76 280.729 2956.2 280.705 2956.77C280.681 2957.35 280.645 2957.92 280.597 2958.5C280.573 2959.08 280.549 2959.53 280.525 2959.87L290.857 2943.7H294.745V2963H291.793V2951.62C291.793 2951.24 291.793 2950.74 291.793 2950.11C291.817 2949.49 291.841 2948.88 291.865 2948.28C291.889 2947.65 291.913 2947.18 291.937 2946.87L281.677 2963H277.753V2943.7H280.741V2955.48ZM302.074 2963H298.402L303.91 2954.9C303.166 2954.71 302.446 2954.41 301.75 2954C301.054 2953.57 300.49 2952.98 300.058 2952.24C299.626 2951.47 299.41 2950.52 299.41 2949.39C299.41 2947.54 300.034 2946.14 301.282 2945.18C302.53 2944.2 304.186 2943.7 306.25 2943.7H314.89V2963H311.722V2955.33H307.042L302.074 2963ZM302.47 2949.43C302.47 2950.53 302.878 2951.36 303.694 2951.91C304.534 2952.44 305.698 2952.7 307.186 2952.7H311.722V2946.33H306.574C305.11 2946.33 304.054 2946.62 303.406 2947.2C302.782 2947.77 302.47 2948.52 302.47 2949.43Z" fill="#5F5E5E"/>
<circle cx="1050.5" cy="2922.5" r="216.5" fill="#3B3B3B"/>
<path d="M940.215 2915.3C943.431 2915.3 945.855 2915.78 947.487 2916.74C949.143 2917.67 949.971 2919.32 949.971 2921.67C949.971 2923.18 949.551 2924.44 948.711 2925.45C947.871 2926.43 946.659 2927.07 945.075 2927.36V2927.54C946.155 2927.7 947.127 2928.02 947.991 2928.47C948.879 2928.93 949.575 2929.58 950.079 2930.42C950.583 2931.26 950.835 2932.35 950.835 2933.69C950.835 2936.02 950.031 2937.82 948.423 2939.09C946.839 2940.36 944.667 2941 941.907 2941H932.871V2915.3H940.215ZM940.863 2926.24C943.071 2926.24 944.583 2925.89 945.399 2925.2C946.215 2924.48 946.623 2923.42 946.623 2922.03C946.623 2920.61 946.119 2919.6 945.111 2919C944.127 2918.38 942.543 2918.07 940.359 2918.07H936.111V2926.24H940.863ZM936.111 2928.94V2938.26H941.295C943.575 2938.26 945.159 2937.82 946.047 2936.93C946.935 2936.04 947.379 2934.88 947.379 2933.44C947.379 2932.1 946.911 2931.02 945.975 2930.2C945.063 2929.36 943.419 2928.94 941.043 2928.94H936.111ZM963.305 2921.34C964.961 2921.34 966.377 2921.7 967.553 2922.42C968.753 2923.14 969.665 2924.16 970.289 2925.48C970.937 2926.78 971.261 2928.3 971.261 2930.06V2931.96H958.049C958.097 2934.15 958.649 2935.82 959.705 2936.97C960.785 2938.1 962.285 2938.66 964.205 2938.66C965.429 2938.66 966.509 2938.55 967.445 2938.34C968.405 2938.1 969.389 2937.76 970.397 2937.33V2940.1C969.413 2940.53 968.441 2940.84 967.481 2941.04C966.521 2941.25 965.381 2941.36 964.061 2941.36C962.237 2941.36 960.617 2940.99 959.201 2940.24C957.809 2939.5 956.717 2938.4 955.925 2936.93C955.157 2935.44 954.773 2933.63 954.773 2931.5C954.773 2929.38 955.121 2927.57 955.817 2926.06C956.537 2924.55 957.533 2923.38 958.805 2922.57C960.101 2921.75 961.601 2921.34 963.305 2921.34ZM963.269 2923.94C961.757 2923.94 960.557 2924.43 959.669 2925.41C958.805 2926.37 958.289 2927.72 958.121 2929.44H967.949C967.925 2927.81 967.541 2926.49 966.797 2925.48C966.053 2924.45 964.877 2923.94 963.269 2923.94ZM975.165 2929.41C975.165 2925.18 975.801 2921.9 977.073 2919.54C978.345 2917.17 980.397 2915.68 983.229 2915.08C984.789 2914.74 986.313 2914.44 987.801 2914.18C989.289 2913.92 990.681 2913.68 991.977 2913.46L992.517 2916.23C991.677 2916.35 990.729 2916.51 989.673 2916.7C988.617 2916.87 987.573 2917.05 986.541 2917.24C985.509 2917.41 984.621 2917.58 983.877 2917.74C982.317 2918.08 981.081 2918.9 980.169 2920.19C979.257 2921.46 978.741 2923.46 978.621 2926.17H978.837C979.173 2925.71 979.629 2925.24 980.205 2924.76C980.805 2924.28 981.513 2923.88 982.329 2923.54C983.169 2923.2 984.117 2923.04 985.173 2923.04C987.669 2923.04 989.553 2923.84 990.825 2925.45C992.097 2927.06 992.733 2929.14 992.733 2931.71C992.733 2933.85 992.361 2935.64 991.617 2937.08C990.873 2938.52 989.841 2939.6 988.521 2940.32C987.201 2941.01 985.665 2941.36 983.913 2941.36C981.249 2941.36 979.125 2940.34 977.541 2938.3C975.957 2936.26 975.165 2933.3 975.165 2929.41ZM984.165 2938.73C985.725 2938.73 986.985 2938.23 987.945 2937.22C988.905 2936.21 989.385 2934.48 989.385 2932.04C989.385 2930.07 989.013 2928.52 988.269 2927.39C987.549 2926.24 986.349 2925.66 984.669 2925.66C983.613 2925.66 982.653 2925.9 981.789 2926.38C980.925 2926.84 980.205 2927.37 979.629 2927.97C979.053 2928.57 978.645 2929.07 978.405 2929.48C978.405 2930.66 978.489 2931.8 978.657 2932.9C978.825 2934 979.113 2935 979.521 2935.89C979.953 2936.75 980.541 2937.45 981.285 2937.98C982.053 2938.48 983.013 2938.73 984.165 2938.73ZM997.143 2931.6H1005.35V2934.37H997.143V2931.6ZM1018.65 2941.36C1016.94 2941.36 1015.42 2941.01 1014.08 2940.32C1012.76 2939.62 1011.71 2938.54 1010.94 2937.08C1010.2 2935.61 1009.83 2933.74 1009.83 2931.46C1009.83 2929.08 1010.22 2927.15 1011.02 2925.66C1011.81 2924.18 1012.88 2923.08 1014.22 2922.39C1015.59 2921.69 1017.14 2921.34 1018.86 2921.34C1019.85 2921.34 1020.8 2921.45 1021.71 2921.67C1022.62 2921.86 1023.36 2922.1 1023.94 2922.39L1022.97 2925.02C1022.39 2924.8 1021.72 2924.6 1020.95 2924.4C1020.18 2924.21 1019.46 2924.12 1018.79 2924.12C1015 2924.12 1013.1 2926.55 1013.1 2931.42C1013.1 2933.75 1013.56 2935.54 1014.47 2936.79C1015.41 2938.01 1016.79 2938.62 1018.61 2938.62C1019.67 2938.62 1020.59 2938.52 1021.38 2938.3C1022.2 2938.08 1022.94 2937.82 1023.62 2937.51V2940.32C1022.97 2940.65 1022.25 2940.9 1021.46 2941.07C1020.69 2941.26 1019.75 2941.36 1018.65 2941.36ZM1039.62 2921.7H1043.07L1034.83 2930.99L1043.76 2941H1040.08L1031.37 2931.21V2941H1028.2V2921.7H1031.37V2931.06L1039.62 2921.7ZM1056.44 2921.34C1058.82 2921.34 1060.72 2922.17 1062.16 2923.83C1063.63 2925.48 1064.36 2927.98 1064.36 2931.32C1064.36 2934.6 1063.63 2937.1 1062.16 2938.8C1060.72 2940.51 1058.8 2941.36 1056.4 2941.36C1054.92 2941.36 1053.68 2941.08 1052.7 2940.53C1051.74 2939.96 1050.98 2939.3 1050.43 2938.55H1050.21C1050.26 2938.96 1050.31 2939.48 1050.36 2940.1C1050.4 2940.72 1050.43 2941.26 1050.43 2941.72V2949.64H1047.26V2921.7H1049.85L1050.28 2924.33H1050.43C1051 2923.49 1051.76 2922.78 1052.7 2922.21C1053.63 2921.63 1054.88 2921.34 1056.44 2921.34ZM1055.86 2924.01C1053.9 2924.01 1052.5 2924.56 1051.69 2925.66C1050.9 2926.77 1050.48 2928.45 1050.43 2930.7V2931.32C1050.43 2933.69 1050.81 2935.53 1051.58 2936.82C1052.37 2938.1 1053.82 2938.73 1055.94 2938.73C1057.11 2938.73 1058.07 2938.41 1058.82 2937.76C1059.58 2937.11 1060.15 2936.24 1060.51 2935.13C1060.89 2934 1061.08 2932.72 1061.08 2931.28C1061.08 2929.07 1060.65 2927.31 1059.79 2925.99C1058.95 2924.67 1057.64 2924.01 1055.86 2924.01ZM1076.72 2921.38C1079.07 2921.38 1080.81 2921.9 1081.94 2922.93C1083.06 2923.96 1083.63 2925.6 1083.63 2927.86V2941H1081.32L1080.71 2938.26H1080.57C1079.73 2939.32 1078.84 2940.1 1077.9 2940.6C1076.99 2941.11 1075.72 2941.36 1074.09 2941.36C1072.34 2941.36 1070.88 2940.9 1069.73 2939.99C1068.58 2939.06 1068 2937.6 1068 2935.64C1068 2933.72 1068.76 2932.24 1070.27 2931.21C1071.78 2930.15 1074.11 2929.58 1077.26 2929.48L1080.53 2929.37V2928.22C1080.53 2926.61 1080.18 2925.5 1079.49 2924.87C1078.79 2924.25 1077.81 2923.94 1076.54 2923.94C1075.53 2923.94 1074.57 2924.09 1073.66 2924.4C1072.74 2924.69 1071.89 2925.03 1071.1 2925.41L1070.13 2923.04C1070.97 2922.58 1071.96 2922.2 1073.12 2921.88C1074.27 2921.55 1075.47 2921.38 1076.72 2921.38ZM1077.65 2931.68C1075.25 2931.77 1073.58 2932.16 1072.65 2932.83C1071.74 2933.5 1071.28 2934.45 1071.28 2935.67C1071.28 2936.75 1071.6 2937.54 1072.25 2938.05C1072.92 2938.55 1073.78 2938.8 1074.81 2938.8C1076.44 2938.8 1077.8 2938.36 1078.88 2937.47C1079.96 2936.56 1080.5 2935.17 1080.5 2933.3V2931.57L1077.65 2931.68ZM1105.9 2921.7V2941H1102.73V2924.4H1092.76V2941H1089.59V2921.7H1105.9ZM1115.04 2933.48C1115.04 2933.76 1115.03 2934.2 1115 2934.77C1114.98 2935.35 1114.94 2935.92 1114.9 2936.5C1114.87 2937.08 1114.85 2937.53 1114.82 2937.87L1125.16 2921.7H1129.04V2941H1126.09V2929.62C1126.09 2929.24 1126.09 2928.74 1126.09 2928.11C1126.12 2927.49 1126.14 2926.88 1126.16 2926.28C1126.19 2925.65 1126.21 2925.18 1126.24 2924.87L1115.98 2941H1112.05V2921.7H1115.04V2933.48ZM1138.35 2921.7V2929.73H1148.83V2921.7H1152V2941H1148.83V2932.4H1138.35V2941H1135.19V2921.7H1138.35ZM1169.88 2921.7V2924.37H1161.27V2941H1158.11V2921.7H1169.88Z" fill="#5F5E5E"/>
<circle cx="1576.5" cy="3442.5" r="216.5" fill="#3B3B3B"/>
<path d="M1462.53 3427V3401.3H1481.82V3427H1478.62V3404.14H1465.77V3427H1462.53ZM1505.2 3417.32C1505.2 3420.51 1504.39 3422.98 1502.76 3424.73C1501.15 3426.48 1498.96 3427.36 1496.2 3427.36C1494.5 3427.36 1492.98 3426.98 1491.63 3426.21C1490.31 3425.42 1489.27 3424.28 1488.5 3422.79C1487.73 3421.28 1487.35 3419.45 1487.35 3417.32C1487.35 3414.12 1488.15 3411.66 1489.76 3409.94C1491.37 3408.21 1493.55 3407.34 1496.31 3407.34C1498.06 3407.34 1499.6 3407.74 1500.92 3408.53C1502.26 3409.3 1503.31 3410.43 1504.05 3411.92C1504.82 3413.38 1505.2 3415.18 1505.2 3417.32ZM1490.62 3417.32C1490.62 3419.6 1491.07 3421.41 1491.96 3422.75C1492.87 3424.07 1494.31 3424.73 1496.28 3424.73C1498.22 3424.73 1499.65 3424.07 1500.56 3422.75C1501.47 3421.41 1501.93 3419.6 1501.93 3417.32C1501.93 3415.04 1501.47 3413.25 1500.56 3411.95C1499.65 3410.66 1498.21 3410.01 1496.24 3410.01C1494.27 3410.01 1492.84 3410.66 1491.96 3411.95C1491.07 3413.25 1490.62 3415.04 1490.62 3417.32ZM1524.55 3407.7V3424.34H1527.36V3433.7H1524.3V3427H1510.87V3433.7H1507.85V3424.34H1509.4C1511.05 3422.06 1512.29 3419.46 1513.1 3416.56C1513.94 3413.63 1514.38 3410.68 1514.4 3407.7H1524.55ZM1517.21 3410.19C1517.11 3411.82 1516.86 3413.51 1516.45 3415.26C1516.04 3416.99 1515.52 3418.65 1514.87 3420.23C1514.24 3421.82 1513.51 3423.18 1512.67 3424.34H1521.49V3410.19H1517.21ZM1542.91 3407.7V3410.37H1534.31V3427H1531.14V3407.7H1542.91ZM1563.14 3417.32C1563.14 3420.51 1562.32 3422.98 1560.69 3424.73C1559.08 3426.48 1556.9 3427.36 1554.14 3427.36C1552.44 3427.36 1550.91 3426.98 1549.57 3426.21C1548.25 3425.42 1547.2 3424.28 1546.44 3422.79C1545.67 3421.28 1545.28 3419.45 1545.28 3417.32C1545.28 3414.12 1546.09 3411.66 1547.7 3409.94C1549.3 3408.21 1551.49 3407.34 1554.25 3407.34C1556 3407.34 1557.54 3407.74 1558.86 3408.53C1560.2 3409.3 1561.24 3410.43 1561.99 3411.92C1562.76 3413.38 1563.14 3415.18 1563.14 3417.32ZM1548.56 3417.32C1548.56 3419.6 1549 3421.41 1549.89 3422.75C1550.8 3424.07 1552.24 3424.73 1554.21 3424.73C1556.16 3424.73 1557.58 3424.07 1558.5 3422.75C1559.41 3421.41 1559.86 3419.6 1559.86 3417.32C1559.86 3415.04 1559.41 3413.25 1558.5 3411.95C1557.58 3410.66 1556.14 3410.01 1554.18 3410.01C1552.21 3410.01 1550.78 3410.66 1549.89 3411.95C1549 3413.25 1548.56 3415.04 1548.56 3417.32ZM1581.13 3410.37H1574.83V3427H1571.7V3410.37H1565.47V3407.7H1581.13V3410.37ZM1601.36 3417.32C1601.36 3420.51 1600.54 3422.98 1598.91 3424.73C1597.3 3426.48 1595.12 3427.36 1592.36 3427.36C1590.65 3427.36 1589.13 3426.98 1587.78 3426.21C1586.46 3425.42 1585.42 3424.28 1584.65 3422.79C1583.88 3421.28 1583.5 3419.45 1583.5 3417.32C1583.5 3414.12 1584.3 3411.66 1585.91 3409.94C1587.52 3408.21 1589.7 3407.34 1592.46 3407.34C1594.22 3407.34 1595.75 3407.74 1597.07 3408.53C1598.42 3409.3 1599.46 3410.43 1600.2 3411.92C1600.97 3413.38 1601.36 3415.18 1601.36 3417.32ZM1586.78 3417.32C1586.78 3419.6 1587.22 3421.41 1588.11 3422.75C1589.02 3424.07 1590.46 3424.73 1592.43 3424.73C1594.37 3424.73 1595.8 3424.07 1596.71 3422.75C1597.62 3421.41 1598.08 3419.6 1598.08 3417.32C1598.08 3415.04 1597.62 3413.25 1596.71 3411.95C1595.8 3410.66 1594.36 3410.01 1592.39 3410.01C1590.42 3410.01 1589 3410.66 1588.11 3411.95C1587.22 3413.25 1586.78 3415.04 1586.78 3417.32ZM1621.89 3412.56C1621.89 3413.76 1621.53 3414.7 1620.81 3415.37C1620.09 3416.04 1619.17 3416.5 1618.04 3416.74V3416.88C1619.24 3417.05 1620.28 3417.48 1621.17 3418.18C1622.06 3418.85 1622.5 3419.91 1622.5 3421.35C1622.5 3422.98 1621.89 3424.34 1620.67 3425.42C1619.47 3426.47 1617.48 3427 1614.69 3427H1606.38V3407.7H1614.66C1616.02 3407.7 1617.25 3407.86 1618.33 3408.17C1619.43 3408.46 1620.3 3408.96 1620.92 3409.68C1621.57 3410.38 1621.89 3411.34 1621.89 3412.56ZM1618.69 3412.96C1618.69 3412.05 1618.35 3411.39 1617.68 3410.98C1617.03 3410.55 1615.96 3410.33 1614.48 3410.33H1609.54V3415.62H1613.9C1617.09 3415.62 1618.69 3414.74 1618.69 3412.96ZM1619.23 3421.35C1619.23 3420.24 1618.81 3419.45 1617.97 3418.97C1617.13 3418.49 1615.89 3418.25 1614.26 3418.25H1609.54V3424.44H1614.33C1615.92 3424.44 1617.13 3424.22 1617.97 3423.76C1618.81 3423.28 1619.23 3422.48 1619.23 3421.35ZM1638.53 3407.7H1641.99L1633.74 3416.99L1642.67 3427H1639L1630.29 3417.21V3427H1627.12V3407.7H1630.29V3417.06L1638.53 3407.7ZM1653.48 3407.38C1655.83 3407.38 1657.57 3407.9 1658.7 3408.93C1659.83 3409.96 1660.39 3411.6 1660.39 3413.86V3427H1658.09L1657.48 3424.26H1657.33C1656.49 3425.32 1655.61 3426.1 1654.67 3426.6C1653.76 3427.11 1652.49 3427.36 1650.85 3427.36C1649.1 3427.36 1647.65 3426.9 1646.5 3425.99C1645.35 3425.06 1644.77 3423.6 1644.77 3421.64C1644.77 3419.72 1645.53 3418.24 1647.04 3417.21C1648.55 3416.15 1650.88 3415.58 1654.02 3415.48L1657.3 3415.37V3414.22C1657.3 3412.61 1656.95 3411.5 1656.25 3410.87C1655.56 3410.25 1654.57 3409.94 1653.3 3409.94C1652.29 3409.94 1651.33 3410.09 1650.42 3410.4C1649.51 3410.69 1648.66 3411.03 1647.87 3411.41L1646.89 3409.04C1647.73 3408.58 1648.73 3408.2 1649.88 3407.88C1651.03 3407.55 1652.23 3407.38 1653.48 3407.38ZM1654.42 3417.68C1652.02 3417.77 1650.35 3418.16 1649.41 3418.83C1648.5 3419.5 1648.05 3420.45 1648.05 3421.67C1648.05 3422.75 1648.37 3423.54 1649.02 3424.05C1649.69 3424.55 1650.54 3424.8 1651.57 3424.8C1653.21 3424.8 1654.56 3424.36 1655.64 3423.47C1656.72 3422.56 1657.26 3421.17 1657.26 3419.3V3417.57L1654.42 3417.68ZM1688.38 3407.7H1691.84L1683.59 3416.99L1692.52 3427H1688.85L1680.14 3417.21V3427H1676.97V3407.7H1680.14V3417.06L1688.38 3407.7ZM1439.18 3470.36C1437.47 3470.36 1435.95 3470.01 1434.61 3469.32C1433.29 3468.62 1432.24 3467.54 1431.47 3466.08C1430.73 3464.61 1430.36 3462.74 1430.36 3460.46C1430.36 3458.08 1430.75 3456.15 1431.55 3454.66C1432.34 3453.18 1433.41 3452.08 1434.75 3451.39C1436.12 3450.69 1437.67 3450.34 1439.39 3450.34C1440.38 3450.34 1441.33 3450.45 1442.24 3450.67C1443.15 3450.86 1443.89 3451.1 1444.47 3451.39L1443.5 3454.02C1442.92 3453.8 1442.25 3453.6 1441.48 3453.4C1440.71 3453.21 1439.99 3453.12 1439.32 3453.12C1435.53 3453.12 1433.63 3455.55 1433.63 3460.42C1433.63 3462.75 1434.09 3464.54 1435 3465.79C1435.94 3467.01 1437.32 3467.62 1439.14 3467.62C1440.2 3467.62 1441.12 3467.52 1441.91 3467.3C1442.73 3467.08 1443.47 3466.82 1444.15 3466.51V3469.32C1443.5 3469.65 1442.78 3469.9 1441.99 3470.07C1441.22 3470.26 1440.28 3470.36 1439.18 3470.36ZM1465.51 3460.32C1465.51 3463.51 1464.7 3465.98 1463.06 3467.73C1461.46 3469.48 1459.27 3470.36 1456.51 3470.36C1454.81 3470.36 1453.28 3469.98 1451.94 3469.21C1450.62 3468.42 1449.58 3467.28 1448.81 3465.79C1448.04 3464.28 1447.66 3462.45 1447.66 3460.32C1447.66 3457.12 1448.46 3454.66 1450.07 3452.94C1451.68 3451.21 1453.86 3450.34 1456.62 3450.34C1458.37 3450.34 1459.91 3450.74 1461.23 3451.53C1462.57 3452.3 1463.62 3453.43 1464.36 3454.92C1465.13 3456.38 1465.51 3458.18 1465.51 3460.32ZM1450.93 3460.32C1450.93 3462.6 1451.38 3464.41 1452.26 3465.75C1453.18 3467.07 1454.62 3467.73 1456.58 3467.73C1458.53 3467.73 1459.96 3467.07 1460.87 3465.75C1461.78 3464.41 1462.24 3462.6 1462.24 3460.32C1462.24 3458.04 1461.78 3456.25 1460.87 3454.95C1459.96 3453.66 1458.52 3453.01 1456.55 3453.01C1454.58 3453.01 1453.15 3453.66 1452.26 3454.95C1451.38 3456.25 1450.93 3458.04 1450.93 3460.32ZM1469.52 3458.41C1469.52 3454.18 1470.16 3450.9 1471.43 3448.54C1472.7 3446.17 1474.76 3444.68 1477.59 3444.08C1479.15 3443.74 1480.67 3443.44 1482.16 3443.18C1483.65 3442.92 1485.04 3442.68 1486.34 3442.46L1486.88 3445.23C1486.04 3445.35 1485.09 3445.51 1484.03 3445.7C1482.98 3445.87 1481.93 3446.05 1480.9 3446.24C1479.87 3446.41 1478.98 3446.58 1478.24 3446.74C1476.68 3447.08 1475.44 3447.9 1474.53 3449.19C1473.62 3450.46 1473.1 3452.46 1472.98 3455.17H1473.2C1473.53 3454.71 1473.99 3454.24 1474.56 3453.76C1475.16 3453.28 1475.87 3452.88 1476.69 3452.54C1477.53 3452.2 1478.48 3452.04 1479.53 3452.04C1482.03 3452.04 1483.91 3452.84 1485.18 3454.45C1486.46 3456.06 1487.09 3458.14 1487.09 3460.71C1487.09 3462.85 1486.72 3464.64 1485.98 3466.08C1485.23 3467.52 1484.2 3468.6 1482.88 3469.32C1481.56 3470.01 1480.02 3470.36 1478.27 3470.36C1475.61 3470.36 1473.48 3469.34 1471.9 3467.3C1470.32 3465.26 1469.52 3462.3 1469.52 3458.41ZM1478.52 3467.73C1480.08 3467.73 1481.34 3467.23 1482.3 3466.22C1483.26 3465.21 1483.74 3463.48 1483.74 3461.04C1483.74 3459.07 1483.37 3457.52 1482.63 3456.39C1481.91 3455.24 1480.71 3454.66 1479.03 3454.66C1477.97 3454.66 1477.01 3454.9 1476.15 3455.38C1475.28 3455.84 1474.56 3456.37 1473.99 3456.97C1473.41 3457.57 1473 3458.07 1472.76 3458.48C1472.76 3459.66 1472.85 3460.8 1473.02 3461.9C1473.18 3463 1473.47 3464 1473.88 3464.89C1474.31 3465.75 1474.9 3466.45 1475.64 3466.98C1476.41 3467.48 1477.37 3467.73 1478.52 3467.73ZM1499.54 3450.34C1501.19 3450.34 1502.61 3450.7 1503.78 3451.42C1504.98 3452.14 1505.9 3453.16 1506.52 3454.48C1507.17 3455.78 1507.49 3457.3 1507.49 3459.06V3460.96H1494.28C1494.33 3463.15 1494.88 3464.82 1495.94 3465.97C1497.02 3467.1 1498.52 3467.66 1500.44 3467.66C1501.66 3467.66 1502.74 3467.55 1503.68 3467.34C1504.64 3467.1 1505.62 3466.76 1506.63 3466.33V3469.1C1505.64 3469.53 1504.67 3469.84 1503.71 3470.04C1502.75 3470.25 1501.61 3470.36 1500.29 3470.36C1498.47 3470.36 1496.85 3469.99 1495.43 3469.24C1494.04 3468.5 1492.95 3467.4 1492.16 3465.93C1491.39 3464.44 1491 3462.63 1491 3460.5C1491 3458.38 1491.35 3456.57 1492.05 3455.06C1492.77 3453.55 1493.76 3452.38 1495.04 3451.57C1496.33 3450.75 1497.83 3450.34 1499.54 3450.34ZM1499.5 3452.94C1497.99 3452.94 1496.79 3453.43 1495.9 3454.41C1495.04 3455.37 1494.52 3456.72 1494.35 3458.44H1504.18C1504.16 3456.81 1503.77 3455.49 1503.03 3454.48C1502.28 3453.45 1501.11 3452.94 1499.5 3452.94ZM1520.14 3470.36C1518.44 3470.36 1516.92 3470.01 1515.57 3469.32C1514.25 3468.62 1513.21 3467.54 1512.44 3466.08C1511.7 3464.61 1511.32 3462.74 1511.32 3460.46C1511.32 3458.08 1511.72 3456.15 1512.51 3454.66C1513.3 3453.18 1514.37 3452.08 1515.72 3451.39C1517.08 3450.69 1518.63 3450.34 1520.36 3450.34C1521.34 3450.34 1522.29 3450.45 1523.2 3450.67C1524.12 3450.86 1524.86 3451.1 1525.44 3451.39L1524.46 3454.02C1523.89 3453.8 1523.22 3453.6 1522.45 3453.4C1521.68 3453.21 1520.96 3453.12 1520.29 3453.12C1516.5 3453.12 1514.6 3455.55 1514.6 3460.42C1514.6 3462.75 1515.06 3464.54 1515.97 3465.79C1516.9 3467.01 1518.28 3467.62 1520.11 3467.62C1521.16 3467.62 1522.09 3467.52 1522.88 3467.3C1523.7 3467.08 1524.44 3466.82 1525.11 3466.51V3469.32C1524.46 3469.65 1523.74 3469.9 1522.95 3470.07C1522.18 3470.26 1521.25 3470.36 1520.14 3470.36ZM1537.15 3450.34C1538.81 3450.34 1540.22 3450.7 1541.4 3451.42C1542.6 3452.14 1543.51 3453.16 1544.14 3454.48C1544.78 3455.78 1545.11 3457.3 1545.11 3459.06V3460.96H1531.9C1531.94 3463.15 1532.5 3464.82 1533.55 3465.97C1534.63 3467.1 1536.13 3467.66 1538.05 3467.66C1539.28 3467.66 1540.36 3467.55 1541.29 3467.34C1542.25 3467.1 1543.24 3466.76 1544.24 3466.33V3469.1C1543.26 3469.53 1542.29 3469.84 1541.33 3470.04C1540.37 3470.25 1539.23 3470.36 1537.91 3470.36C1536.08 3470.36 1534.46 3469.99 1533.05 3469.24C1531.66 3468.5 1530.56 3467.4 1529.77 3465.93C1529 3464.44 1528.62 3462.63 1528.62 3460.5C1528.62 3458.38 1528.97 3456.57 1529.66 3455.06C1530.38 3453.55 1531.38 3452.38 1532.65 3451.57C1533.95 3450.75 1535.45 3450.34 1537.15 3450.34ZM1537.12 3452.94C1535.6 3452.94 1534.4 3453.43 1533.52 3454.41C1532.65 3455.37 1532.14 3456.72 1531.97 3458.44H1541.8C1541.77 3456.81 1541.39 3455.49 1540.64 3454.48C1539.9 3453.45 1538.72 3452.94 1537.12 3452.94ZM1564.35 3450.7V3467.34H1567.16V3476.7H1564.1V3470H1550.67V3476.7H1547.64V3467.34H1549.19C1550.85 3465.06 1552.08 3462.46 1552.9 3459.56C1553.74 3456.63 1554.17 3453.68 1554.2 3450.7H1564.35ZM1557 3453.19C1556.91 3454.82 1556.66 3456.51 1556.25 3458.26C1555.84 3459.99 1555.31 3461.65 1554.66 3463.23C1554.04 3464.82 1553.31 3466.18 1552.47 3467.34H1561.29V3453.19H1557ZM1587.71 3460.32C1587.71 3463.51 1586.9 3465.98 1585.27 3467.73C1583.66 3469.48 1581.47 3470.36 1578.71 3470.36C1577.01 3470.36 1575.49 3469.98 1574.14 3469.21C1572.82 3468.42 1571.78 3467.28 1571.01 3465.79C1570.24 3464.28 1569.86 3462.45 1569.86 3460.32C1569.86 3457.12 1570.66 3454.66 1572.27 3452.94C1573.88 3451.21 1576.06 3450.34 1578.82 3450.34C1580.57 3450.34 1582.11 3450.74 1583.43 3451.53C1584.77 3452.3 1585.82 3453.43 1586.56 3454.92C1587.33 3456.38 1587.71 3458.18 1587.71 3460.32ZM1573.13 3460.32C1573.13 3462.6 1573.58 3464.41 1574.47 3465.75C1575.38 3467.07 1576.82 3467.73 1578.79 3467.73C1580.73 3467.73 1582.16 3467.07 1583.07 3465.75C1583.98 3464.41 1584.44 3462.6 1584.44 3460.32C1584.44 3458.04 1583.98 3456.25 1583.07 3454.95C1582.16 3453.66 1580.72 3453.01 1578.75 3453.01C1576.78 3453.01 1575.35 3453.66 1574.47 3454.95C1573.58 3456.25 1573.13 3458.04 1573.13 3460.32ZM1608.25 3455.56C1608.25 3456.76 1607.89 3457.7 1607.17 3458.37C1606.45 3459.04 1605.53 3459.5 1604.4 3459.74V3459.88C1605.6 3460.05 1606.64 3460.48 1607.53 3461.18C1608.42 3461.85 1608.86 3462.91 1608.86 3464.35C1608.86 3465.98 1608.25 3467.34 1607.03 3468.42C1605.83 3469.47 1603.84 3470 1601.05 3470H1592.74V3450.7H1601.02C1602.38 3450.7 1603.61 3450.86 1604.69 3451.17C1605.79 3451.46 1606.66 3451.96 1607.28 3452.68C1607.93 3453.38 1608.25 3454.34 1608.25 3455.56ZM1605.05 3455.96C1605.05 3455.05 1604.71 3454.39 1604.04 3453.98C1603.39 3453.55 1602.32 3453.33 1600.84 3453.33H1595.9V3458.62H1600.26C1603.45 3458.62 1605.05 3457.74 1605.05 3455.96ZM1605.59 3464.35C1605.59 3463.24 1605.17 3462.45 1604.33 3461.97C1603.49 3461.49 1602.25 3461.25 1600.62 3461.25H1595.9V3467.44H1600.69C1602.28 3467.44 1603.49 3467.22 1604.33 3466.76C1605.17 3466.28 1605.59 3465.48 1605.59 3464.35ZM1620.79 3450.38C1623.14 3450.38 1624.88 3450.9 1626.01 3451.93C1627.13 3452.96 1627.7 3454.6 1627.7 3456.86V3470H1625.39L1624.78 3467.26H1624.64C1623.8 3468.32 1622.91 3469.1 1621.97 3469.6C1621.06 3470.11 1619.79 3470.36 1618.16 3470.36C1616.41 3470.36 1614.95 3469.9 1613.8 3468.99C1612.65 3468.06 1612.07 3466.6 1612.07 3464.64C1612.07 3462.72 1612.83 3461.24 1614.34 3460.21C1615.85 3459.15 1618.18 3458.58 1621.33 3458.48L1624.6 3458.37V3457.22C1624.6 3455.61 1624.25 3454.5 1623.56 3453.87C1622.86 3453.25 1621.88 3452.94 1620.61 3452.94C1619.6 3452.94 1618.64 3453.09 1617.73 3453.4C1616.81 3453.69 1615.96 3454.03 1615.17 3454.41L1614.2 3452.04C1615.04 3451.58 1616.03 3451.2 1617.19 3450.88C1618.34 3450.55 1619.54 3450.38 1620.79 3450.38ZM1621.72 3460.68C1619.32 3460.77 1617.65 3461.16 1616.72 3461.83C1615.81 3462.5 1615.35 3463.45 1615.35 3464.67C1615.35 3465.75 1615.67 3466.54 1616.32 3467.05C1616.99 3467.55 1617.85 3467.8 1618.88 3467.8C1620.51 3467.8 1621.87 3467.36 1622.95 3466.47C1624.03 3465.56 1624.57 3464.17 1624.57 3462.3V3460.57L1621.72 3460.68ZM1636.83 3450.7V3458.73H1647.3V3450.7H1650.47V3470H1647.3V3461.4H1636.83V3470H1633.66V3450.7H1636.83ZM1659.57 3462.48C1659.57 3462.76 1659.56 3463.2 1659.53 3463.77C1659.51 3464.35 1659.47 3464.92 1659.42 3465.5C1659.4 3466.08 1659.38 3466.53 1659.35 3466.87L1669.68 3450.7H1673.57V3470H1670.62V3458.62C1670.62 3458.24 1670.62 3457.74 1670.62 3457.11C1670.64 3456.49 1670.67 3455.88 1670.69 3455.28C1670.72 3454.65 1670.74 3454.18 1670.76 3453.87L1660.5 3470H1656.58V3450.7H1659.57V3462.48ZM1680.9 3470H1677.23L1682.74 3461.9C1681.99 3461.71 1681.27 3461.41 1680.58 3461C1679.88 3460.57 1679.32 3459.98 1678.88 3459.24C1678.45 3458.47 1678.24 3457.52 1678.24 3456.39C1678.24 3454.54 1678.86 3453.14 1680.11 3452.18C1681.36 3451.2 1683.01 3450.7 1685.08 3450.7H1693.72V3470H1690.55V3462.33H1685.87L1680.9 3470ZM1681.3 3456.43C1681.3 3457.53 1681.7 3458.36 1682.52 3458.91C1683.36 3459.44 1684.52 3459.7 1686.01 3459.7H1690.55V3453.33H1685.4C1683.94 3453.33 1682.88 3453.62 1682.23 3454.2C1681.61 3454.77 1681.3 3455.52 1681.3 3456.43ZM1720.52 3450.7V3470H1717.68V3457.69C1717.68 3457.18 1717.69 3456.66 1717.71 3456.1C1717.76 3455.55 1717.81 3455.01 1717.86 3454.48H1717.75L1711.45 3470H1708.79L1702.67 3454.48H1702.56C1702.63 3455.56 1702.67 3456.67 1702.67 3457.8V3470H1699.82V3450.7H1704.03L1710.12 3466.22L1716.31 3450.7H1720.52Z" fill="#5F5E5E"/>
<circle cx="2174.5" cy="3122.5" r="216.5" fill="#3B3B3B"/>
<path d="M2136.01 3140H2128.76V3111.78H2119.45V3105.73H2145.32V3111.78H2136.01V3140ZM2170.34 3140H2150.61V3105.73H2170.34V3111.68H2157.86V3119.22H2169.47V3125.17H2157.86V3134H2170.34V3140ZM2192.01 3111.3C2189.23 3111.3 2187.1 3112.34 2185.63 3114.42C2184.16 3116.5 2183.42 3119.34 2183.42 3122.96C2183.42 3126.61 2184.09 3129.44 2185.44 3131.46C2186.81 3133.44 2189 3134.43 2192.01 3134.43C2193.42 3134.43 2194.81 3134.27 2196.19 3133.95C2197.6 3133.63 2199.12 3133.18 2200.75 3132.61V3138.7C2199.24 3139.31 2197.76 3139.76 2196.28 3140.05C2194.81 3140.34 2193.16 3140.48 2191.34 3140.48C2187.82 3140.48 2184.91 3139.76 2182.6 3138.32C2180.33 3136.85 2178.65 3134.8 2177.56 3132.18C2176.48 3129.52 2175.93 3126.43 2175.93 3122.91C2175.93 3119.46 2176.56 3116.4 2177.8 3113.74C2179.05 3111.09 2180.86 3109.01 2183.23 3107.5C2185.63 3106 2188.56 3105.25 2192.01 3105.25C2193.71 3105.25 2195.4 3105.47 2197.1 3105.92C2198.83 3106.34 2200.48 3106.91 2202.04 3107.65L2199.69 3113.55C2198.41 3112.94 2197.12 3112.42 2195.8 3111.97C2194.52 3111.52 2193.26 3111.3 2192.01 3111.3ZM2221.23 3140H2213.98V3111.78H2204.67V3105.73H2230.54V3111.78H2221.23V3140Z" fill="#5F5E5E"/>
<defs>
<filter id="filter0_i" x="1015" y="1647" width="478.003" height="309.42" filterUnits="userSpaceOnUse" color-interpolation-filters="sRGB">
<feFlood flood-opacity="0" result="BackgroundImageFix"/>
<feBlend mode="normal" in="SourceGraphic" in2="BackgroundImageFix" result="shape"/>
<feColorMatrix in="SourceAlpha" type="matrix" values="0 0 0 0 0 0 0 0 0 0 0 0 0 0 0 0 0 0 127 0" result="hardAlpha"/>
<feOffset dy="4"/>
<feGaussianBlur stdDeviation="31"/>
<feComposite in2="hardAlpha" operator="arithmetic" k2="-1" k3="1"/>
<feColorMatrix type="matrix" values="0 0 0 0 0 0 0 0 0 0 0 0 0 0 0 0 0 0 0.25 0"/>
<feBlend mode="normal" in2="shape" result="effect1_innerShadow"/>
</filter>
<filter id="filter1_i" x="1775" y="972" width="487.258" height="517.883" filterUnits="userSpaceOnUse" color-interpolation-filters="sRGB">
<feFlood flood-opacity="0" result="BackgroundImageFix"/>
<feBlend mode="normal" in="SourceGraphic" in2="BackgroundImageFix" result="shape"/>
<feColorMatrix in="SourceAlpha" type="matrix" values="0 0 0 0 0 0 0 0 0 0 0 0 0 0 0 0 0 0 127 0" result="hardAlpha"/>
<feOffset dy="4"/>
<feGaussianBlur stdDeviation="31"/>
<feComposite in2="hardAlpha" operator="arithmetic" k2="-1" k3="1"/>
<feColorMatrix type="matrix" values="0 0 0 0 0 0 0 0 0 0 0 0 0 0 0 0 0 0 0.25 0"/>
<feBlend mode="normal" in2="shape" result="effect1_innerShadow"/>
</filter>
<filter id="filter2_i" x="1036" y="1542" width="1081" height="55" filterUnits="userSpaceOnUse" color-interpolation-filters="sRGB">
<feFlood flood-opacity="0" result="BackgroundImageFix"/>
<feBlend mode="normal" in="SourceGraphic" in2="BackgroundImageFix" result="shape"/>
<feColorMatrix in="SourceAlpha" type="matrix" values="0 0 0 0 0 0 0 0 0 0 0 0 0 0 0 0 0 0 127 0" result="hardAlpha"/>
<feOffset dy="4"/>
<feGaussianBlur stdDeviation="31"/>
<feComposite in2="hardAlpha" operator="arithmetic" k2="-1" k3="1"/>
<feColorMatrix type="matrix" values="0 0 0 0 0 0 0 0 0 0 0 0 0 0 0 0 0 0 0.25 0"/>
<feBlend mode="normal" in2="shape" result="effect1_innerShadow"/>
</filter>
<filter id="filter3_i" x="258" y="2466" width="349.211" height="353.211" filterUnits="userSpaceOnUse" color-interpolation-filters="sRGB">
<feFlood flood-opacity="0" result="BackgroundImageFix"/>
<feBlend mode="normal" in="SourceGraphic" in2="BackgroundImageFix" result="shape"/>
<feColorMatrix in="SourceAlpha" type="matrix" values="0 0 0 0 0 0 0 0 0 0 0 0 0 0 0 0 0 0 127 0" result="hardAlpha"/>
<feOffset dy="4"/>
<feGaussianBlur stdDeviation="31"/>
<feComposite in2="hardAlpha" operator="arithmetic" k2="-1" k3="1"/>
<feColorMatrix type="matrix" values="0 0 0 0 0 0 0 0 0 0 0 0 0 0 0 0 0 0 0.25 0"/>
<feBlend mode="normal" in2="shape" result="effect1_innerShadow"/>
</filter>
<filter id="filter4_i" x="428" y="2902" width="442.859" height="55" filterUnits="userSpaceOnUse" color-interpolation-filters="sRGB">
<feFlood flood-opacity="0" result="BackgroundImageFix"/>
<feBlend mode="normal" in="SourceGraphic" in2="BackgroundImageFix" result="shape"/>
<feColorMatrix in="SourceAlpha" type="matrix" values="0 0 0 0 0 0 0 0 0 0 0 0 0 0 0 0 0 0 127 0" result="hardAlpha"/>
<feOffset dy="4"/>
<feGaussianBlur stdDeviation="31"/>
<feComposite in2="hardAlpha" operator="arithmetic" k2="-1" k3="1"/>
<feColorMatrix type="matrix" values="0 0 0 0 0 0 0 0 0 0 0 0 0 0 0 0 0 0 0.25 0"/>
<feBlend mode="normal" in2="shape" result="effect1_innerShadow"/>
</filter>
<filter id="filter5_i" x="1137" y="3003" width="349.211" height="353.211" filterUnits="userSpaceOnUse" color-interpolation-filters="sRGB">
<feFlood flood-opacity="0" result="BackgroundImageFix"/>
<feBlend mode="normal" in="SourceGraphic" in2="BackgroundImageFix" result="shape"/>
<feColorMatrix in="SourceAlpha" type="matrix" values="0 0 0 0 0 0 0 0 0 0 0 0 0 0 0 0 0 0 127 0" result="hardAlpha"/>
<feOffset dy="4"/>
<feGaussianBlur stdDeviation="31"/>
<feComposite in2="hardAlpha" operator="arithmetic" k2="-1" k3="1"/>
<feColorMatrix type="matrix" values="0 0 0 0 0 0 0 0 0 0 0 0 0 0 0 0 0 0 0.25 0"/>
<feBlend mode="normal" in2="shape" result="effect1_innerShadow"/>
</filter>
<filter id="filter6_i" x="1661" y="3176" width="409.027" height="269.597" filterUnits="userSpaceOnUse" color-interpolation-filters="sRGB">
<feFlood flood-opacity="0" result="BackgroundImageFix"/>
<feBlend mode="normal" in="SourceGraphic" in2="BackgroundImageFix" result="shape"/>
<feColorMatrix in="SourceAlpha" type="matrix" values="0 0 0 0 0 0 0 0 0 0 0 0 0 0 0 0 0 0 127 0" result="hardAlpha"/>
<feOffset dy="4"/>
<feGaussianBlur stdDeviation="31"/>
<feComposite in2="hardAlpha" operator="arithmetic" k2="-1" k3="1"/>
<feColorMatrix type="matrix" values="0 0 0 0 0 0 0 0 0 0 0 0 0 0 0 0 0 0 0.25 0"/>
<feBlend mode="normal" in2="shape" result="effect1_innerShadow"/>
</filter>
<filter id="filter7_i" x="808" y="2020" width="684.731" height="337.751" filterUnits="userSpaceOnUse" color-interpolation-filters="sRGB">
<feFlood flood-opacity="0" result="BackgroundImageFix"/>
<feBlend mode="normal" in="SourceGraphic" in2="BackgroundImageFix" result="shape"/>
<feColorMatrix in="SourceAlpha" type="matrix" values="0 0 0 0 0 0 0 0 0 0 0 0 0 0 0 0 0 0 127 0" result="hardAlpha"/>
<feOffset dy="4"/>
<feGaussianBlur stdDeviation="31"/>
<feComposite in2="hardAlpha" operator="arithmetic" k2="-1" k3="1"/>
<feColorMatrix type="matrix" values="0 0 0 0 0 0 0 0 0 0 0 0 0 0 0 0 0 0 0.25 0"/>
<feBlend mode="normal" in2="shape" result="effect1_innerShadow"/>
</filter>
<filter id="filter8_i" x="1669" y="7" width="714.001" height="714.57" filterUnits="userSpaceOnUse" color-interpolation-filters="sRGB">
<feFlood flood-opacity="0" result="BackgroundImageFix"/>
<feBlend mode="normal" in="SourceGraphic" in2="BackgroundImageFix" result="shape"/>
<feColorMatrix in="SourceAlpha" type="matrix" values="0 0 0 0 0 0 0 0 0 0 0 0 0 0 0 0 0 0 127 0" result="hardAlpha"/>
<feOffset dy="4"/>
<feGaussianBlur stdDeviation="31"/>
<feComposite in2="hardAlpha" operator="arithmetic" k2="-1" k3="1"/>
<feColorMatrix type="matrix" values="0 0 0 0 0 0 0 0 0 0 0 0 0 0 0 0 0 0 0.25 0"/>
<feBlend mode="normal" in2="shape" result="effect1_innerShadow"/>
</filter>
</defs>
</g>
</svg>